<?xml version="1.0" encoding="UTF-8"?>
<svg version="1.1" xmlns="http://www.w3.org/2000/svg" width="1024" height="1024">
<path d="M0 0 C337.92 0 675.84 0 1024 0 C1024 337.92 1024 675.84 1024 1024 C686.08 1024 348.16 1024 0 1024 C0 686.08 0 348.16 0 0 Z " fill="#FDFCFC" transform="translate(0,0)"/>
<path d="M0 0 C1.03873764 -0.0112793 2.07747528 -0.02255859 3.14768982 -0.03417969 C4.84885956 -0.0220343 4.84885956 -0.0220343 6.58439636 -0.00964355 C7.78317917 -0.01665283 8.98196198 -0.02366211 10.21707153 -0.03088379 C13.50254192 -0.04547387 16.78736782 -0.0420509 20.07282853 -0.02936745 C23.51555614 -0.01922987 26.95824113 -0.02863586 30.40097046 -0.03491211 C36.18549815 -0.04218929 41.96982157 -0.03260221 47.75431824 -0.0135498 C54.4311391 0.00818847 61.10747078 0.00119045 67.78427964 -0.02085543 C73.52374275 -0.03904449 79.26305908 -0.0415498 85.00254172 -0.03110075 C88.42725009 -0.02488098 91.85172909 -0.02398735 95.2764225 -0.0372467 C99.09946724 -0.04741825 102.92157736 -0.03189888 106.74455261 -0.00964355 C107.87259308 -0.01774048 109.00063354 -0.0258374 110.16285706 -0.03417969 C116.60452746 0.03520316 120.72040051 0.48607114 125.85856628 4.50793457 C129.22823395 8.78941987 130.35753917 11.56863541 130.33958435 16.99996948 C130.34508301 18.28716888 130.35058167 19.57436829 130.35624695 20.90057373 C130.34209305 22.3144569 130.32755385 23.72833626 130.31266785 25.14221191 C130.31153878 26.64061452 130.31217439 28.13901933 130.31443787 29.63742065 C130.31558363 33.69498217 130.29209694 37.75206889 130.26414204 41.80952024 C130.23910529 46.05358174 130.2367846 50.29765461 130.23204041 54.54177856 C130.21961729 62.57402489 130.18680473 70.60605296 130.14664245 78.63820326 C130.10190402 87.7844495 130.0799325 96.93070626 130.05986071 106.07703471 C130.01807146 124.88745832 129.94773238 143.69767888 129.85856628 162.50793457 C130.52388367 162.4869873 131.18920105 162.46604004 131.87467957 162.44445801 C134.9108193 162.36092848 137.94671671 162.30915854 140.98356628 162.25793457 C142.03028503 162.22441895 143.07700378 162.19090332 144.15544128 162.15637207 C150.18004448 162.08011127 154.29762541 162.10728236 158.85856628 166.50793457 C161.67070965 171.10788731 162.29152036 174.95946451 162.24624634 180.24363708 C162.25432464 181.38322958 162.25432464 181.38322958 162.26256615 182.54584414 C162.27682831 185.08147 162.26974647 187.61657252 162.26261902 190.15222168 C162.2683235 191.97424234 162.27528806 193.79625942 162.28341675 195.61827087 C162.30135452 200.5604283 162.30017861 205.50240823 162.29447436 210.44458842 C162.29138345 214.5723729 162.29747388 218.70012324 162.30351311 222.82790285 C162.31755873 232.56657188 162.31599669 242.30515319 162.30461121 252.04382324 C162.29312932 262.08680815 162.3072068 272.12952603 162.33400768 282.17247576 C162.35616677 290.79940545 162.3628016 299.42625133 162.35693127 308.05320746 C162.35356107 313.20379471 162.35598102 318.3542108 162.3731823 323.50477409 C162.38865266 328.34841063 162.3846948 333.19165168 162.36587715 338.0352726 C162.36219156 339.81098734 162.36529889 341.58673139 162.37576294 343.36241913 C162.388977 345.79048366 162.37742281 348.21723965 162.35977173 350.64524841 C162.37417924 351.69409907 162.37417924 351.69409907 162.38887781 352.76413864 C162.30817451 358.17612201 160.93709158 361.19470955 157.85856628 365.50793457 C153.75247681 369.05201845 149.5186669 368.93470654 144.32525635 368.89561462 C143.46767162 368.90100016 142.6100869 368.9063857 141.72651476 368.91193444 C138.85380055 368.92623833 135.98154554 368.91910429 133.10881042 368.9119873 C131.04886504 368.91768959 128.98892282 368.9246533 126.9289856 368.93278503 C121.33397047 368.95074702 115.73911191 368.94954233 110.14407659 368.94384265 C105.47444795 368.94075523 100.80484957 368.94683827 96.13522524 368.9528814 C85.11988434 368.96693497 74.10462099 368.96535835 63.08927917 368.95397949 C51.72221219 368.94249683 40.3553811 368.95657465 28.98834521 368.98337597 C19.23110194 369.00552104 9.47393278 369.01217304 -0.28333384 369.00629956 C-6.11185863 369.00292601 -11.9402322 369.00537156 -17.76873589 369.02255058 C-23.24926234 369.03799857 -28.72943888 369.03408783 -34.2099514 369.01524544 C-36.22151878 369.01155365 -38.23311196 369.01468514 -40.24465561 369.02513123 C-42.99055554 369.03830235 -45.73529049 369.0268281 -48.48114014 369.00914001 C-49.27735163 369.01874502 -50.07356313 369.02835003 -50.89390224 369.0382461 C-56.07273779 368.96959638 -59.08604275 368.00387005 -63.14143372 364.50793457 C-65.62944843 360.99427312 -66.51771667 358.59110039 -66.53571701 354.30068016 C-66.55300216 352.74929519 -66.55300216 352.74929519 -66.57063651 351.16656911 C-66.56803706 350.03691594 -66.56543762 348.90726277 -66.5627594 347.74337769 C-66.57167277 346.53813529 -66.58058613 345.33289289 -66.5897696 344.09112799 C-66.6112887 340.74865345 -66.6193457 337.40664154 -66.621562 334.06413102 C-66.62712168 330.45792365 -66.64976783 326.85181604 -66.66996765 323.2456665 C-66.71068867 315.36119186 -66.7287876 307.47676305 -66.74199963 299.59220076 C-66.75029267 294.66679002 -66.76300586 289.7413969 -66.77651215 284.81599808 C-66.813088 271.17280627 -66.8439853 257.52962855 -66.85413742 243.88638878 C-66.85479612 243.01341864 -66.85545482 242.14044849 -66.85613348 241.24102471 C-66.85678831 240.36599066 -66.85744314 239.49095661 -66.85811782 238.58940637 C-66.85944821 236.81631811 -66.8607879 235.04322985 -66.86213684 233.2701416 C-66.86280113 232.39063255 -66.86346542 231.5111235 -66.86414984 230.60496266 C-66.87598872 216.36027449 -66.92833554 202.11604722 -66.99821541 187.87153701 C-67.06941899 173.23877669 -67.10674585 158.6062474 -67.11024117 143.97331107 C-67.11298817 135.7606627 -67.13016016 127.5486147 -67.18470001 119.33613205 C-67.23098953 112.34140931 -67.24621543 105.34747239 -67.2214857 98.35262553 C-67.20979409 94.78616645 -67.21240485 91.22128818 -67.25465775 87.65502548 C-67.52352651 63.60535626 -67.52352651 63.60535626 -61.77967834 56.46755981 C-59.39302444 54.2786808 -59.39302444 54.2786808 -57.14143372 52.50793457 C-56.02550535 51.29621994 -54.926655 50.06808512 -53.86018372 48.81262207 C-52.79219555 47.66478742 -51.71909058 46.52169652 -50.64143372 45.38293457 C-50.03613831 44.74041748 -49.4308429 44.09790039 -48.8072052 43.43591309 C-42.37846994 36.66886437 -35.79433433 30.05439358 -29.20393372 23.44543457 C-28.66591125 22.90473328 -28.12788879 22.36403198 -27.57356262 21.8069458 C-22.15265413 16.36556622 -16.73315835 10.96803859 -10.85798645 6.01013184 C-9.04817054 4.49588832 -9.04817054 4.49588832 -7.35548878 2.44579315 C-4.67249295 0.09749271 -3.51511207 0.00587945 0 0 Z " fill="#065F69" transform="translate(228.1414337158203,338.4920654296875)"/>
<path d="M0 0 C14.2903906 -0.04669997 28.58076938 -0.08184609 42.87122059 -0.10362434 C49.5063777 -0.11407518 56.14148366 -0.12825811 62.77661133 -0.15087891 C69.17619519 -0.17256089 75.57572977 -0.18455883 81.97534752 -0.18975449 C84.42065902 -0.1934586 86.86596772 -0.20069149 89.31125832 -0.21146011 C92.72815472 -0.22591321 96.14484568 -0.22798053 99.56176758 -0.22705078 C100.57956299 -0.23424133 101.5973584 -0.24143188 102.64599609 -0.24884033 C103.57567703 -0.246091 104.50535797 -0.24334167 105.46321106 -0.24050903 C106.27162351 -0.24235262 107.08003595 -0.24419621 107.91294575 -0.24609566 C110 0 110 0 113 2 C113.30793325 4.47822687 113.41745629 6.70999976 113.40113831 9.19221497 C113.40793498 9.94176962 113.41473164 10.69132428 113.42173427 11.46359271 C113.44080565 13.98864405 113.43826312 16.51321445 113.43579102 19.03833008 C113.44476249 20.84330372 113.45496931 22.64827159 113.46632385 24.45323181 C113.49289328 29.36654613 113.4998603 34.27970385 113.50177121 39.19308305 C113.50461517 43.29103533 113.51564644 47.38895088 113.5262875 51.48688906 C113.55074094 61.15444552 113.55803852 70.82191813 113.5559082 80.48950195 C113.55410614 90.46892557 113.58575077 100.4478625 113.63313919 110.42716295 C113.67234505 118.98774346 113.68846073 127.54816481 113.68654197 136.10883445 C113.68577627 141.22487354 113.69437004 146.34048057 113.72607613 151.45643044 C113.75508542 156.26895337 113.75538192 161.08063029 113.73352623 165.89318275 C113.73038412 167.66007215 113.737505 169.42701387 113.7556076 171.19381332 C113.77872103 173.60581946 113.76487741 176.01489249 113.74171448 178.42683411 C113.75714517 179.12684015 113.77257586 179.82684619 113.78847414 180.54806453 C113.70352025 184.54851099 113.05134233 185.94381277 110.31764603 188.93547344 C106.83035443 191.10556816 105.21499977 191.62086992 101.1759491 191.60559082 C100.0363826 191.6136525 98.8968161 191.62171417 97.72271729 191.63002014 C95.86873322 191.60529884 95.86873322 191.60529884 93.97729492 191.58007812 C91.96193139 191.58384241 89.94656787 191.58760802 87.93120444 191.59142303 C85.77200566 191.59068327 83.61319369 191.57761273 81.45406151 191.5610199 C76.94370177 191.52705869 72.43386354 191.53126039 67.92341614 191.5411377 C57.53172275 191.55810674 47.14029738 191.52540114 36.74866486 191.49221039 C27.2294452 191.46230714 17.71051769 191.44305626 8.19125634 191.46387625 C3.71423315 191.47223906 -0.76184773 191.45657077 -5.23873675 191.42208099 C-7.35749551 191.40954659 -9.47589337 191.40849523 -11.59468079 191.41249084 C-14.16853228 191.4172791 -16.7425067 191.40446639 -19.31613159 191.36997986 C-28.74394687 191.43618393 -34.6589581 193.85397332 -41.625 200.125 C-45.14574651 203.85044108 -47.77498626 208.07690488 -50.421875 212.44921875 C-52 215 -52 215 -55 219 C-55 165.21 -55 111.42 -55 56 C-32.23 55.505 -32.23 55.505 -9 55 C-4.0607837 52.19064165 -4.0607837 52.19064165 -1 48 C-0.53369649 45.66630429 -0.53369649 45.66630429 -0.56762695 43.13964844 C-0.54783279 42.17895447 -0.52803864 41.2182605 -0.50764465 40.22845459 C-0.49805977 38.68451019 -0.49805977 38.68451019 -0.48828125 37.109375 C-0.47033005 36.04962463 -0.45237885 34.98987427 -0.43388367 33.89801025 C-0.3797298 30.51538056 -0.34586801 27.1328924 -0.3125 23.75 C-0.27933148 21.45570945 -0.24484227 19.16143759 -0.20898438 16.8671875 C-0.12400045 11.24491857 -0.05567198 5.62263144 0 0 Z " fill="#FCFCFC" transform="translate(231,353)"/>
<path d="M0 0 C11.22 0 22.44 0 34 0 C55.6334469 43.07619741 55.6334469 43.07619741 65 63 C66.29887186 65.75918817 67.59830313 68.51810511 68.8996582 71.27612305 C69.69360311 72.9600329 70.48525414 74.64502697 71.27416992 76.33129883 C72.7649803 79.90902854 72.7649803 79.90902854 75 83 C83.92962806 64.65155692 92.84488036 46.297557 101.62597656 27.87744141 C106.06712306 18.57691677 110.53836581 9.29069709 115 0 C126.22 0 137.44 0 149 0 C149 47.85 149 95.7 149 145 C139.43 145 129.86 145 120 145 C119.67 112.99 119.34 80.98 119 48 C104.31590823 77.29990019 104.31590823 77.29990019 90.05761719 106.78662109 C87.77652946 111.56047644 85.39193616 116.2807746 83 121 C77.39 121 71.78 121 66 121 C58.20712505 106.53490689 51.06645212 91.83954945 44 77 C39.38 67.43 34.76 57.86 30 48 C29.67 80.01 29.34 112.02 29 145 C19.43 145 9.86 145 0 145 C0 97.15 0 49.3 0 0 Z " fill="#151C22" transform="translate(578,371)"/>
<path d="M0 0 C1.05928711 0.00491455 2.11857422 0.0098291 3.20996094 0.01489258 C20.29720475 0.26971152 38.34580367 4.9379579 51.12109375 17.0234375 C51.51425781 17.44882812 51.90742187 17.87421875 52.3125 18.3125 C50.96979678 21.24651033 49.44738676 23.50396175 47.30859375 25.9140625 C46.73302734 26.56890625 46.15746094 27.22375 45.56445312 27.8984375 C44.96568359 28.57132812 44.36691406 29.24421875 43.75 29.9375 C42.55935689 31.28222634 41.37046763 32.62850822 40.18359375 33.9765625 C39.65693115 34.56904785 39.13026855 35.1615332 38.58764648 35.77197266 C37.22392412 37.30147476 37.22392412 37.30147476 36.3125 39.3125 C33.38654755 37.93789147 30.86822652 36.3265382 28.25 34.4375 C19.50064464 28.68913126 11.95593865 26.94713003 1.5625 26.8125 C0.66305664 26.79396973 -0.23638672 26.77543945 -1.16308594 26.75634766 C-8.07530104 26.8217023 -12.19794092 28.4045341 -17.5625 32.875 C-20.37183789 36.46470953 -20.15470915 40.98019698 -19.6875 45.3125 C-16.61828834 52.42014806 -10.20941652 55.27954167 -3.39453125 58.02734375 C0.93937601 59.52982582 5.30540885 60.68991522 9.75 61.8125 C21.1426545 64.69432986 31.96640274 67.91274126 41.3125 75.3125 C42.25029297 76.04533203 42.25029297 76.04533203 43.20703125 76.79296875 C50.33842116 83.08537161 54.86589987 93.15527525 55.55078125 102.59765625 C55.81343422 115.96531025 52.55135176 126.48360267 43.34765625 136.4375 C29.81957395 149.35400534 13.06512921 151.92450909 -4.9296875 151.58203125 C-24.02729129 150.79374057 -42.60682397 142.21071828 -55.6875 128.3125 C-54.15897075 124.77574349 -52.0458611 122.31685254 -49.4375 119.5 C-45.77041494 115.50115927 -42.19601407 111.45074736 -38.6875 107.3125 C-35.79229187 108.63301249 -34.25367636 109.72704259 -31.875 112 C-20.53316347 122.0541171 -6.43437917 124.07253684 8.10351562 123.49609375 C14.00170723 123.00588154 17.80553656 120.89481161 21.8125 116.6875 C24.67615877 112.15337361 24.91274734 108.61617803 24.3125 103.3125 C21.59200962 96.88225 16.43861338 94.87840126 10.3125 92.3125 C5.21412158 90.63645551 0.05408936 89.21265539 -5.125 87.8125 C-38.02985856 78.89329208 -38.02985856 78.89329208 -46.171875 64.73046875 C-52.23303755 51.98420045 -53.58504175 39.9722988 -49.01171875 26.4609375 C-43.9132993 14.33903167 -35.74371042 8.27379728 -23.91015625 3.390625 C-15.89579991 0.70945851 -8.43919735 -0.04625871 0 0 Z " fill="#151C21" transform="translate(802.6875,367.6875)"/>
<path d="M0 0 C5.63713338 4.8490473 11.27737189 10.36150094 14.5625 17.125 C14.5625 18.115 14.5625 19.105 14.5625 20.125 C10.95996767 21.94076193 7.35520269 23.75204663 3.75 25.5625 C2.21375977 26.3369043 2.21375977 26.3369043 0.64648438 27.12695312 C-0.33642578 27.62001953 -1.31933594 28.11308594 -2.33203125 28.62109375 C-3.23800049 29.07669678 -4.14396973 29.5322998 -5.07739258 30.00170898 C-7.4375 31.125 -7.4375 31.125 -10.4375 32.125 C-10.7778125 31.61710937 -11.118125 31.10921875 -11.46875 30.5859375 C-16.37603283 23.61655178 -22.20071364 18.02199361 -30.5625 15.59765625 C-42.64149469 13.61184326 -54.64422446 14.08496925 -65.11328125 20.85546875 C-75.12582052 28.2869979 -81.75220924 39.22484516 -84.12109375 51.49609375 C-86.08494188 67.81300472 -83.25254452 83.25011993 -74.4375 97.125 C-67.81792422 104.89638197 -58.46637471 109.25667939 -48.37646484 110.34790039 C-34.26709884 111.12504011 -24.25674071 108.56385483 -13.4375 99.125 C-11.1275 97.145 -8.8175 95.165 -6.4375 93.125 C0.8225 97.745 8.0825 102.365 15.5625 107.125 C8.51519115 121.21961771 -6.58769958 130.39211047 -21.08203125 135.37890625 C-39.93189529 141.04649718 -60.40739355 139.37574617 -77.86206055 130.31054688 C-83.1651308 127.41927493 -87.95551972 124.1929821 -92.4375 120.125 C-93.12070312 119.52171875 -93.80390625 118.9184375 -94.5078125 118.296875 C-106.97557868 106.63501005 -115.12462139 89.33071113 -115.82327271 72.25456238 C-115.88834305 69.44721519 -115.90052425 66.64271396 -115.88354492 63.8347168 C-115.87502138 61.69287169 -115.90393405 59.5536942 -115.93554688 57.41210938 C-116.02973075 39.36427088 -109.42236234 22.3922436 -96.76953125 9.39453125 C-95.99996094 8.64558594 -95.23039062 7.89664062 -94.4375 7.125 C-93.67824219 6.34511719 -92.91898437 5.56523437 -92.13671875 4.76171875 C-68.70048687 -18.06079839 -25.83665102 -19.8953939 0 0 Z " fill="#151C21" transform="translate(544.4375,380.875)"/>
<path d="M0 0 C4.47908208 3.01461698 8.78131914 6.59640118 10.59765625 11.85546875 C11.95977663 19.11570264 12.20803121 26.79047425 8.3359375 33.28515625 C4.71622542 37.93151182 0.63153196 41.18868855 -5 43 C-12.60337387 43.83724732 -19.7797498 43.84584412 -26 39 C-30.71518507 34.54852775 -33.62568889 30.29787784 -34.37109375 23.73046875 C-34.53590072 14.93753226 -33.6655891 9.87066994 -27.578125 3.515625 C-19.28989832 -4.05963594 -9.8055968 -4.75983515 0 0 Z " fill="#12181C" transform="translate(523,553)"/>
<path d="M0 0 C0.92534546 -0.00845947 1.85069092 -0.01691895 2.80407715 -0.02563477 C3.81715942 -0.01956207 4.8302417 -0.01348938 5.87402344 -0.00723267 C6.9425354 -0.01248962 8.01104736 -0.01774658 9.11193848 -0.02316284 C12.65257276 -0.03639311 16.19275939 -0.02761378 19.73339844 -0.01748657 C22.18815192 -0.01950643 24.64290482 -0.02241713 27.09765625 -0.02618408 C32.24582627 -0.03061155 37.39384028 -0.02416262 42.54199219 -0.01016235 C49.150049 0.00692955 55.7577403 -0.00290934 62.36578369 -0.02087975 C67.43573779 -0.03170605 72.50560484 -0.02827651 77.57556152 -0.02049637 C80.0124923 -0.01849118 82.44943091 -0.02096476 84.88635254 -0.02793503 C88.28870665 -0.03553035 91.69046392 -0.02397164 95.09277344 -0.00723267 C96.10585571 -0.01330536 97.11893799 -0.01937805 98.16271973 -0.02563477 C99.55073792 -0.01294556 99.55073792 -0.01294556 100.96679688 0 C102.17357086 0.00169662 102.17357086 0.00169662 103.40472412 0.00342751 C106.03354586 0.48086727 106.91615972 1.24069657 108.48339844 3.38095093 C109.13778937 9.48859965 109.13778937 9.48859965 107.10839844 12.25595093 C104.323166 14.18418877 102.59881166 14.50962953 99.25236511 14.52812195 C98.36494125 14.53527725 97.4775174 14.54243256 96.5632019 14.54980469 C95.09900314 14.55383804 95.09900314 14.55383804 93.60522461 14.55795288 C92.57908554 14.56452408 91.55294647 14.57109528 90.49571228 14.5778656 C87.08926324 14.59762731 83.68285832 14.60926715 80.27636719 14.61923218 C78.53430213 14.62534547 78.53430213 14.62534547 76.75704384 14.63158226 C70.61106162 14.6524545 64.46510181 14.66675167 58.3190918 14.67611694 C51.96339764 14.68718834 45.60805292 14.72159375 39.25248241 14.76128864 C34.37204832 14.7874032 29.49169816 14.79580417 24.61120033 14.79939842 C22.26800487 14.80427713 19.92481346 14.81592737 17.58168602 14.83443642 C14.30409227 14.85871914 11.02741155 14.85788246 7.74975586 14.85092163 C6.77969604 14.86373169 5.80963623 14.87654175 4.81018066 14.88973999 C0.55922893 14.85679169 -1.89086387 14.74441924 -5.6269989 12.57423401 C-7.51660156 10.38095093 -7.51660156 10.38095093 -8.01660156 6.81845093 C-7.24289624 1.49922686 -5.2782141 0.00742069 0 0 Z " fill="#055F69" transform="translate(209.5166015625,462.6190490722656)"/>
<path d="M0 0 C0.91548615 -0.00845947 1.83097229 -0.01691895 2.77420044 -0.02563477 C4.27744118 -0.01652573 4.27744118 -0.01652573 5.81105042 -0.00723267 C6.86820251 -0.01248962 7.92535461 -0.01774658 9.01454163 -0.02316284 C12.51790534 -0.0363938 16.02081664 -0.02761291 19.52418518 -0.01748657 C21.9541228 -0.01950656 24.38405982 -0.02241737 26.81399536 -0.02618408 C31.91089134 -0.03061177 37.00762976 -0.02416249 42.10450745 -0.01016235 C48.64296496 0.00692049 55.18105282 -0.00290345 61.71949673 -0.02087975 C66.73887931 -0.03171321 71.75817407 -0.02827304 76.77755928 -0.02049637 C79.18854376 -0.01849269 81.59953617 -0.02095948 84.0105114 -0.02793503 C87.37913545 -0.03554108 90.74715868 -0.02395606 94.11573792 -0.00723267 C95.11587418 -0.01330536 96.11601044 -0.01937805 97.14645386 -0.02563477 C98.06475983 -0.01717529 98.9830658 -0.00871582 99.92919922 0 C101.123529 0.00169662 101.123529 0.00169662 102.34198666 0.00342751 C105.13343992 0.48548994 106.50809101 1.41316249 108.52809143 3.38095093 C109.27566425 9.36153345 109.27566425 9.36153345 107.15309143 12.25595093 C104.36785899 14.18418877 102.64350465 14.50962953 99.29705811 14.52812195 C98.40963425 14.53527725 97.52221039 14.54243256 96.6078949 14.54980469 C95.14369614 14.55383804 95.14369614 14.55383804 93.6499176 14.55795288 C92.62377853 14.56452408 91.59763947 14.57109528 90.54040527 14.5778656 C87.13395623 14.59762731 83.72755131 14.60926715 80.32106018 14.61923218 C78.57899512 14.62534547 78.57899512 14.62534547 76.80173683 14.63158226 C70.65575461 14.6524545 64.50979481 14.66675167 58.36378479 14.67611694 C52.00809063 14.68718834 45.65274592 14.72159375 39.29717541 14.76128864 C34.41674131 14.7874032 29.53639115 14.79580417 24.65589333 14.79939842 C22.31269786 14.80427713 19.96950645 14.81592737 17.62637901 14.83443642 C14.34878527 14.85871914 11.07210454 14.85788246 7.79444885 14.85092163 C6.82438904 14.86373169 5.85432922 14.87654175 4.85487366 14.88973999 C0.60392192 14.85679169 -1.84617088 14.74441924 -5.58230591 12.57423401 C-7.47190857 10.38095093 -7.47190857 10.38095093 -7.97190857 6.81845093 C-7.20265631 1.52984161 -5.25682171 0.00747116 0 0 Z " fill="#055964" transform="translate(209.47190856933594,425.6190490722656)"/>
<path d="M0 0 C9 0 9 0 11.171875 1.5546875 C11.69265625 2.32039062 12.2134375 3.08609375 12.75 3.875 C13.38421875 4.76703125 14.0184375 5.6590625 14.671875 6.578125 C15.02572266 7.10212891 15.37957031 7.62613281 15.74414062 8.16601562 C17.77423124 11.13064251 19.91161621 14.01676423 22.03222656 16.91699219 C24.70687909 20.59779192 27.35017534 24.30128642 30 28 C30.33 18.76 30.66 9.52 31 0 C33.97 0 36.94 0 40 0 C40 14.85 40 29.7 40 45 C31 45 31 45 28.3203125 42.46484375 C27.55792272 41.30868116 26.82746254 40.13102272 26.125 38.9375 C25.29880951 37.66150576 24.47060642 36.3868129 23.640625 35.11328125 C23.21716797 34.44377441 22.79371094 33.77426758 22.35742188 33.08447266 C20.01518427 29.48770563 17.43511928 26.06816938 14.875 22.625 C13.26625 20.43875 11.6575 18.2525 10 16 C9.67 25.57 9.34 35.14 9 45 C6.03 45 3.06 45 0 45 C0 30.15 0 15.3 0 0 Z " fill="#191F23" transform="translate(545,551)"/>
<path d="M0 0 C0.64604187 -0.00700928 1.29208374 -0.01401855 1.95770264 -0.02124023 C4.08755834 -0.03880645 6.21607868 -0.02720288 8.34594727 -0.01367188 C9.83041132 -0.01636756 11.31487365 -0.02025062 12.79933167 -0.02526855 C15.90887277 -0.03116195 19.01795384 -0.02260766 22.12744141 -0.00390625 C26.10676749 0.01886412 30.08501328 0.00577258 34.06429958 -0.01819611 C37.12962427 -0.03267583 40.19469443 -0.02803797 43.26002693 -0.01768494 C44.72679841 -0.01502259 46.19359324 -0.01827013 47.66033745 -0.02760315 C49.71428139 -0.03780337 51.76649678 -0.02222274 53.8203125 0 C54.98739243 0.00318237 56.15447235 0.00636475 57.35691833 0.00964355 C61.14486336 0.62672766 62.81875707 1.7823579 65.47485352 4.51757812 C66.09985352 8.01757812 66.09985352 8.01757812 65.47485352 11.51757812 C62.84722558 14.2089067 61.17589946 15.40181673 57.4395752 16.01878357 C56.31104126 16.01894974 55.18250732 16.01911591 54.01977539 16.01928711 C52.73494263 16.02866806 51.45010986 16.03804901 50.12634277 16.04771423 C48.73208955 16.03723557 47.33784278 16.02586651 45.94360352 16.01367188 C44.50541104 16.01382696 43.06721815 16.01531747 41.62902832 16.01808167 C38.61960297 16.01946389 35.61065524 16.00693814 32.60131836 15.98413086 C28.7510649 15.95574611 24.90160458 15.9584856 21.05129242 15.97122097 C18.08291901 15.97818847 15.11472771 15.97037677 12.14637756 15.95796394 C10.72706298 15.95345981 9.30772878 15.95310356 7.88841248 15.95702934 C5.9022193 15.95995173 3.91603019 15.94123809 1.92993164 15.92163086 C0.23713074 15.91352638 0.23713074 15.91352638 -1.48986816 15.90525818 C-5.18069302 15.43384863 -7.87432419 14.16840042 -10.52514648 11.51757812 C-11.11024272 5.31555799 -11.11024272 5.31555799 -8.91343689 2.31945801 C-5.78198556 -0.04311027 -3.9018635 0.01064679 0 0 Z " fill="#095E68" transform="translate(212.525146484375,497.482421875)"/>
<path d="M0 0 C9 0 9 0 11.08813477 1.4777832 C11.53471436 2.16187256 11.98129395 2.84596191 12.44140625 3.55078125 C12.96283203 4.31326172 13.48425781 5.07574219 14.02148438 5.86132812 C14.53001953 6.67021484 15.03855469 7.47910156 15.5625 8.3125 C16.60488308 9.87148551 17.64786004 11.43007408 18.69140625 12.98828125 C19.78324219 14.64214844 20.87507812 16.29601562 22 18 C24.64 21.63 27.28 25.26 30 29 C30.33 19.43 30.66 9.86 31 0 C33.64 0 36.28 0 39 0 C39 14.85 39 29.7 39 45 C31 45 31 45 29.04125977 43.62988281 C28.59580811 42.99405273 28.15035645 42.35822266 27.69140625 41.703125 C27.17602295 40.99663818 26.66063965 40.29015137 26.12963867 39.56225586 C25.61248291 38.79921143 25.09532715 38.03616699 24.5625 37.25 C24.01118408 36.48244385 23.45986816 35.7148877 22.8918457 34.92407227 C21.77561317 33.36880448 20.66928716 31.80637634 19.57324219 30.23681641 C17.76211887 27.66178354 15.88329571 25.14589798 13.97900391 22.6394043 C12.30675231 20.43576235 10.65529281 18.21640902 9 16 C8.67 25.57 8.34 35.14 8 45 C5.36 45 2.72 45 0 45 C0 30.15 0 15.3 0 0 Z " fill="#151C22" transform="translate(682,551)"/>
<path d="M0 0 C2.31 0 4.62 0 7 0 C7.54269531 0.95261719 8.08539063 1.90523437 8.64453125 2.88671875 C9.36715839 4.15366244 10.08981627 5.42058859 10.8125 6.6875 C11.16892578 7.31333984 11.52535156 7.93917969 11.89257812 8.58398438 C12.24384766 9.19951172 12.59511719 9.81503906 12.95703125 10.44921875 C13.3020166 11.05427246 13.64700195 11.65932617 14.00244141 12.28271484 C14.89329691 13.8163119 15.82490581 15.32606811 16.76171875 16.83203125 C18 19 18 19 18 21 C18.66 21 19.32 21 20 21 C20.24621094 20.16082031 20.49242187 19.32164062 20.74609375 18.45703125 C22.1523988 14.57983507 23.97952916 11.2311588 26.0625 7.6875 C26.42666016 7.05521484 26.79082031 6.42292969 27.16601562 5.77148438 C29.83996333 1.16003667 29.83996333 1.16003667 31 0 C33.31 0 35.62 0 38 0 C38 12.54 38 25.08 38 38 C35.69 38 33.38 38 31 38 C30.505 26.615 30.505 26.615 30 15 C26.7 20.61 23.4 26.22 20 32 C16.56500392 30.85500131 16.38336181 30.43024564 14.73828125 27.40234375 C14.38032471 26.75515381 14.02236816 26.10796387 13.65356445 25.44116211 C13.21101318 24.61495361 12.76846191 23.78874512 12.3125 22.9375 C10.889375 20.318125 9.46625 17.69875 8 15 C7.67 22.59 7.34 30.18 7 38 C4.69 38 2.38 38 0 38 C0 25.46 0 12.92 0 0 Z " fill="#151B1F" transform="translate(438,617)"/>
<path d="M0 0 C7 0 7 0 8.69677734 1.49707031 C9.26066162 2.52719238 9.26066162 2.52719238 9.8359375 3.578125 C10.26003906 4.32707031 10.68414063 5.07601562 11.12109375 5.84765625 C11.53488281 6.64042969 11.94867187 7.43320312 12.375 8.25 C12.81199219 9.02730469 13.24898437 9.80460938 13.69921875 10.60546875 C15.59962437 14.04737986 17.17396673 17.13507369 18 21 C18.66 21 19.32 21 20 21 C20.24621094 20.16082031 20.49242187 19.32164062 20.74609375 18.45703125 C22.1523988 14.57983507 23.97952916 11.2311588 26.0625 7.6875 C26.42666016 7.05521484 26.79082031 6.42292969 27.16601562 5.77148438 C29.83996333 1.16003667 29.83996333 1.16003667 31 0 C33.31 0 35.62 0 38 0 C38 12.54 38 25.08 38 38 C35.69 38 33.38 38 31 38 C30.505 26.12 30.505 26.12 30 14 C26.7 19.94 23.4 25.88 20 32 C16.56500392 30.85500131 16.38336181 30.43024564 14.73828125 27.40234375 C14.38032471 26.75515381 14.02236816 26.10796387 13.65356445 25.44116211 C13.21101318 24.61495361 12.76846191 23.78874512 12.3125 22.9375 C10.889375 20.318125 9.46625 17.69875 8 15 C7.67 22.59 7.34 30.18 7 38 C4.69 38 2.38 38 0 38 C0 25.46 0 12.92 0 0 Z " fill="#161D22" transform="translate(697,617)"/>
<path d="M0 0 C9.9 0 19.8 0 30 0 C30 2.31 30 4.62 30 7 C22.74 7 15.48 7 8 7 C8 10.96 8 14.92 8 19 C14.6 19 21.2 19 28 19 C28 21.31 28 23.62 28 26 C21.4 26 14.8 26 8 26 C8 29.96 8 33.92 8 38 C15.59 38 23.18 38 31 38 C31 40.31 31 42.62 31 45 C20.77 45 10.54 45 0 45 C0 30.15 0 15.3 0 0 Z " fill="#131B1F" transform="translate(639,551)"/>
<path d="M0 0 C2.64 0 5.28 0 8 0 C8.44653931 0.81005493 8.44653931 0.81005493 8.90209961 1.63647461 C10.24547302 4.07112577 11.59145055 6.5043274 12.9375 8.9375 C13.40607422 9.78763672 13.87464844 10.63777344 14.35742188 11.51367188 C14.80537109 12.32255859 15.25332031 13.13144531 15.71484375 13.96484375 C16.12855225 14.7137085 16.54226074 15.46257324 16.96850586 16.23413086 C17.8778715 17.96251145 17.8778715 17.96251145 19 19 C19.29769287 18.45996338 19.59538574 17.91992676 19.90209961 17.36352539 C21.24547302 14.92887423 22.59145055 12.4956726 23.9375 10.0625 C24.40607422 9.21236328 24.87464844 8.36222656 25.35742188 7.48632812 C26.0293457 6.27299805 26.0293457 6.27299805 26.71484375 5.03515625 C27.12855225 4.2862915 27.54226074 3.53742676 27.96850586 2.76586914 C29 1 29 1 30 0 C32.31 0 34.62 0 37 0 C37 11.88 37 23.76 37 36 C34.69 36 32.38 36 30 36 C29.67 29.07 29.34 22.14 29 15 C26.16093831 19.92952351 26.16093831 19.92952351 23.34643555 24.87304688 C22.31240388 26.63250657 21.15821636 28.31968611 20 30 C19.01 30 18.02 30 17 30 C14.03 24.72 11.06 19.44 8 14 C7.67 21.26 7.34 28.52 7 36 C4.69 36 2.38 36 0 36 C0 24.12 0 12.24 0 0 Z " fill="#1C2124" transform="translate(616,674)"/>
<path d="M0 0 C7 0 7 0 9.37109375 2.01953125 C10.05300781 2.94121094 10.73492188 3.86289062 11.4375 4.8125 C12.18773437 5.80765625 12.93796875 6.8028125 13.7109375 7.828125 C14.46632813 8.87484375 15.22171875 9.9215625 16 11 C17.16402344 12.53914062 17.16402344 12.53914062 18.3515625 14.109375 C24 21.6539311 24 21.6539311 24 24 C24.66 24 25.32 24 26 24 C26 16.08 26 8.16 26 0 C28.31 0 30.62 0 33 0 C33 12.54 33 25.08 33 38 C26 38 26 38 23.76831055 36.11987305 C23.14738525 35.25918213 22.52645996 34.39849121 21.88671875 33.51171875 C21.19642578 32.57779297 20.50613281 31.64386719 19.79492188 30.68164062 C19.09947266 29.69357422 18.40402344 28.70550781 17.6875 27.6875 C16.97271484 26.71103516 16.25792969 25.73457031 15.52148438 24.72851562 C12.94502724 21.19529683 10.42564647 17.63846971 8 14 C7.67 21.92 7.34 29.84 7 38 C4.69 38 2.38 38 0 38 C0 25.46 0 12.92 0 0 Z " fill="#161D22" transform="translate(529,617)"/>
<path d="M0 0 C7 0 7 0 8.92456055 1.46533203 C9.40707275 2.13935059 9.88958496 2.81336914 10.38671875 3.5078125 C10.93263672 4.24773438 11.47855469 4.98765625 12.04101562 5.75 C12.58435547 6.53375 13.12769531 7.3175 13.6875 8.125 C14.24244141 8.88554688 14.79738281 9.64609375 15.36914062 10.4296875 C16.94286438 12.60034096 18.47730042 14.79335409 20 17 C20.63542725 17.90250488 20.63542725 17.90250488 21.28369141 18.82324219 C24 22.75144231 24 22.75144231 24 25 C24.66 25 25.32 25 26 25 C26 16.75 26 8.5 26 0 C28.31 0 30.62 0 33 0 C33 12.54 33 25.08 33 38 C26 38 26 38 23.6640625 36.05078125 C22.99117187 35.14714844 22.31828125 34.24351562 21.625 33.3125 C20.87605469 32.3225 20.12710938 31.3325 19.35546875 30.3125 C18.56636708 29.2111495 17.78136441 28.10685321 17 27 C16.57799316 26.40703125 16.15598633 25.8140625 15.72119141 25.203125 C13.09700774 21.49979155 10.54665345 17.75934556 8 14 C7.67 21.92 7.34 29.84 7 38 C4.69 38 2.38 38 0 38 C0 25.46 0 12.92 0 0 Z " fill="#151B20" transform="translate(785,617)"/>
<path d="M0 0 C4.93918408 2.61486216 8.48734878 5.97469756 11 11 C11.55769904 16.96308973 11.50156448 21.92876868 8 27 C3.34699155 31.19905641 0.46699458 32.36619655 -5.68359375 32.27734375 C-10.52945106 31.69714836 -13.18656484 28.87765373 -16.375 25.4375 C-18.91213801 20.07047729 -19.11021158 14.57369882 -17.33984375 8.875 C-13.85187284 1.8688593 -7.60154451 -1.1056792 0 0 Z " fill="#FAF9F9" transform="translate(515,557)"/>
<path d="M0 0 C3.34635707 2.03447285 5.59169976 4.992179 7.86328125 8.1328125 C6.11328125 9.6953125 6.11328125 9.6953125 3.86328125 11.1328125 C1.19167896 10.96045106 -0.06326602 10.1884585 -2.19921875 8.5703125 C-6.75797643 6.33943108 -11.16134209 6.34492294 -16.13671875 7.1328125 C-20.08561612 9.09945704 -22.46816768 12.08920676 -24.13671875 16.1328125 C-24.9453818 21.90897713 -24.10264322 26.06602487 -21.13671875 31.1328125 C-21.13671875 31.7928125 -21.13671875 32.4528125 -21.13671875 33.1328125 C-20.35296875 33.4421875 -19.56921875 33.7515625 -18.76171875 34.0703125 C-16.13671875 35.1328125 -16.13671875 35.1328125 -14.13671875 36.1328125 C-7.87435354 36.65467627 -5.28177489 35.9916046 -0.13671875 32.1328125 C1.98828125 31.1953125 1.98828125 31.1953125 3.86328125 31.1328125 C6.11328125 32.5703125 6.11328125 32.5703125 7.86328125 34.1328125 C6.00140358 38.87213748 2.75464686 41.23216221 -1.76171875 43.3828125 C-8.85253089 44.95854853 -15.8510964 45.26459337 -22.28515625 41.53125 C-27.50158765 37.59141362 -31.95595034 32.692637 -33.13671875 26.1328125 C-33.8683704 17.98980062 -32.54731786 12.04754245 -27.51171875 5.4453125 C-20.24814098 -2.51772091 -9.76607309 -4.03168548 0 0 Z " fill="#141A1E" transform="translate(471.13671875,551.8671875)"/>
<path d="M0 0 C4.14183036 1.39441622 6.54873707 3.32310561 9 7 C7.68 8.32 6.36 9.64 5 11 C1 9 1 9 -0.8125 7.875 C-4.01482931 6.59406828 -6.58312596 6.70027421 -10 7 C-13.83365683 8.70384748 -15.43350646 10.16001141 -17 14 C-17.7833371 19.59526499 -17.24333146 24.25083608 -14 29 C-11.07818746 30.83942802 -8.86304152 31.25125796 -5.4375 31.1875 C-4.29087891 31.17783203 -4.29087891 31.17783203 -3.12109375 31.16796875 C-0.81102284 31.07053505 -0.81102284 31.07053505 2 30 C2.33 28.35 2.66 26.7 3 25 C0.03 25 -2.94 25 -6 25 C-6 22.69 -6 20.38 -6 18 C-0.72 18 4.56 18 10 18 C10.12375 20.3925 10.2475 22.785 10.375 25.25 C10.42962402 25.99668945 10.48424805 26.74337891 10.54052734 27.51269531 C10.5859375 29.328125 10.5859375 29.328125 10 33 C4.14111019 38.00345962 -1.25550239 38.41873746 -8.69921875 38.3359375 C-14.46796908 37.74882208 -17.70050768 35.44039259 -21.59375 31.30859375 C-25.21480623 26.49057727 -25.75047662 21.83935673 -25.48828125 15.90625 C-24.50738169 10.06793584 -21.60994483 6.46018252 -17.3125 2.5625 C-11.94125199 -1.06672163 -6.32604398 -0.55729435 0 0 Z " fill="#11171B" transform="translate(638,617)"/>
<path d="M0 0 C2.31 0 4.62 0 7 0 C10.6915047 7.92456259 14.07514007 15.94272167 17.3125 24.0625 C17.9940918 25.75149414 17.9940918 25.75149414 18.68945312 27.47460938 C19.33237305 29.08239258 19.33237305 29.08239258 19.98828125 30.72265625 C20.56896362 32.17297241 20.56896362 32.17297241 21.16137695 33.65258789 C22 36 22 36 22 38 C19.36 38 16.72 38 14 38 C13.34 35.36 12.68 32.72 12 30 C6.39 30 0.78 30 -5 30 C-5.33 31.98 -5.66 33.96 -6 36 C-6.33 36.66 -6.66 37.32 -7 38 C-9.31 38 -11.62 38 -14 38 C-11.69842556 29.55966227 -8.55104064 21.488484 -5.3125 13.375 C-4.79584522 12.07176467 -4.27956658 10.76838015 -3.76367188 9.46484375 C-2.51279075 6.30841474 -1.25815732 3.15353412 0 0 Z " fill="#13181D" transform="translate(499,617)"/>
<path d="M0 0 C1.4540625 0.0309375 1.4540625 0.0309375 2.9375 0.0625 C6.44099169 6.68576762 9.22084354 13.54522284 11.93896484 20.51904297 C12.69481875 22.45625759 13.45836385 24.39031999 14.22265625 26.32421875 C17.9375 35.80658272 17.9375 35.80658272 17.9375 38.0625 C15.6275 38.0625 13.3175 38.0625 10.9375 38.0625 C7.9375 32.3125 7.9375 32.3125 7.9375 30.0625 C2.6575 30.3925 -2.6225 30.7225 -8.0625 31.0625 C-9.0525 33.3725 -10.0425 35.6825 -11.0625 38.0625 C-13.3725 38.0625 -15.6825 38.0625 -18.0625 38.0625 C-15.72625353 30.75179675 -13.00652336 23.61286584 -10.19140625 16.47558594 C-9.42857385 14.53984932 -8.67113733 12.60205715 -7.9140625 10.6640625 C-7.19476562 8.83488281 -7.19476562 8.83488281 -6.4609375 6.96875 C-5.80617432 5.30295898 -5.80617432 5.30295898 -5.13818359 3.60351562 C-3.64419728 0.07437137 -3.64419728 0.07437137 0 0 Z " fill="#1C2327" transform="translate(589.0625,616.9375)"/>
<path d="M0 0 C11.22 0 22.44 0 34 0 C34 47.85 34 95.7 34 145 C33.34 145 32.68 145 32 145 C32 144.34 32 143.68 32 143 C23.75 143 15.5 143 7 143 C7 110.66 7 78.32 7 45 C7.33 45 7.66 45 8 45 C8 77.01 8 109.02 8 142 C15.59 142 23.18 142 31 142 C31 95.8 31 49.6 31 2 C15.655 2.495 15.655 2.495 0 3 C-0.66 4.98 -1.32 6.96 -2 9 C-2.33 8.01 -2.66 7.02 -3 6 C-2.01 4.02 -1.02 2.04 0 0 Z " fill="#262C30" transform="translate(693,371)"/>
<path d="M0 0 C11.22 0 22.44 0 34 0 C36.165625 4.228125 38.33125 8.45625 40.5625 12.8125 C41.25029541 14.1425708 41.93809082 15.4726416 42.64672852 16.84301758 C43.17709717 17.89126709 43.70746582 18.9395166 44.25390625 20.01953125 C44.80377197 21.09307861 45.3536377 22.16662598 45.92016602 23.27270508 C47 26 47 26 46 29 C45.48050781 27.96101563 44.96101562 26.92203125 44.42578125 25.8515625 C44.08998047 25.18012207 43.75417969 24.50868164 43.40820312 23.81689453 C42.67591171 22.35198538 41.94414337 20.88681463 41.21289062 19.42138672 C39.60555121 16.20171173 37.9927646 12.98583856 36.35546875 9.78125 C35.90816406 8.9046875 35.46085938 8.028125 35 7.125 C34.4121875 5.98417969 34.4121875 5.98417969 33.8125 4.8203125 C33 3 33 3 33 1 C22.77 1 12.54 1 2 1 C2 47.86 2 94.72 2 143 C10.25 143 18.5 143 27 143 C27 110.66 27 78.32 27 45 C29.70226458 47.70226458 29.23664397 49.7978827 29.24884033 53.4680481 C29.24164978 54.37722992 29.23445923 55.28641174 29.22705078 56.22314453 C29.22734283 57.1792865 29.22763489 58.13542847 29.22793579 59.12054443 C29.22653876 62.29139172 29.21095999 65.46200609 29.1953125 68.6328125 C29.1915837 70.82713696 29.1887361 73.02146308 29.18673706 75.21578979 C29.17909015 80.99937514 29.15943259 86.78286049 29.1373291 92.56640625 C29.11689343 98.46482999 29.10774023 104.36326984 29.09765625 110.26171875 C29.07618768 121.8411969 29.04099693 133.4205745 29 145 C19.43 145 9.86 145 0 145 C0 97.15 0 49.3 0 0 Z " fill="#05080B" transform="translate(578,371)"/>
<path d="M0 0 C8.25 0 16.5 0 25 0 C25 2.31 25 4.62 25 7 C19.06 7 13.12 7 7 7 C7 9.97 7 12.94 7 16 C12.28 16 17.56 16 23 16 C23 17.98 23 19.96 23 22 C17.72 22 12.44 22 7 22 C7 25.3 7 28.6 7 32 C13.27 32 19.54 32 26 32 C26 33.98 26 35.96 26 38 C17.42 38 8.84 38 0 38 C0 25.46 0 12.92 0 0 Z " fill="#1C2429" transform="translate(660,617)"/>
<path d="M0 0 C8.25 0 16.5 0 25 0 C25 1.98 25 3.96 25 6 C19.06 6 13.12 6 7 6 C7 9.3 7 12.6 7 16 C12.61 16 18.22 16 24 16 C24 17.98 24 19.96 24 22 C18.39 22 12.78 22 7 22 C7 25.3 7 28.6 7 32 C13.6 32 20.2 32 27 32 C27 33.98 27 35.96 27 38 C18.09 38 9.18 38 0 38 C0 25.46 0 12.92 0 0 Z " fill="#1A2227" transform="translate(748,617)"/>
<path d="M0 0 C8.25 0 16.5 0 25 0 C25 1.98 25 3.96 25 6 C19.06 6 13.12 6 7 6 C7 8.97 7 11.94 7 15 C12.28 15 17.56 15 23 15 C23 16.98 23 18.96 23 21 C17.72 21 12.44 21 7 21 C7 23.97 7 26.94 7 30 C13.27 30 19.54 30 26 30 C26 31.98 26 33.96 26 36 C17.42 36 8.84 36 0 36 C0 24.12 0 12.24 0 0 Z " fill="#1A2126" transform="translate(580,674)"/>
<path d="M0 0 C11.88 0 23.76 0 36 0 C36 2.31 36 4.62 36 7 C31.38 7 26.76 7 22 7 C22 19.54 22 32.08 22 45 C19.36 45 16.72 45 14 45 C14 32.46 14 19.92 14 7 C9.38 7 4.76 7 0 7 C0 4.69 0 2.38 0 0 Z " fill="#12181C" transform="translate(730,551)"/>
<path d="M0 0 C11.88 0 23.76 0 36 0 C36 2.31 36 4.62 36 7 C31.38 7 26.76 7 22 7 C22 19.54 22 32.08 22 45 C19.36 45 16.72 45 14 45 C14 32.46 14 19.92 14 7 C9.38 7 4.76 7 0 7 C0 4.69 0 2.38 0 0 Z " fill="#181F23" transform="translate(594,551)"/>
<path d="M0 0 C1.69921875 0.94921875 1.69921875 0.94921875 3.69921875 3.94921875 C2.04921875 5.26921875 0.39921875 6.58921875 -1.30078125 7.94921875 C-1.81640625 7.61921875 -2.33203125 7.28921875 -2.86328125 6.94921875 C-6.08104637 5.62910998 -8.85783405 5.8167977 -12.30078125 5.94921875 C-12.63078125 7.26921875 -12.96078125 8.58921875 -13.30078125 9.94921875 C-9.22627168 12.52974148 -4.97857074 14.55655885 -0.60546875 16.5703125 C1.94485733 18.09618556 3.18552651 19.40544202 4.69921875 21.94921875 C5.21774141 26.02332538 5.14132667 28.18403196 3.07421875 31.76171875 C-0.6084249 35.15362738 -3.82490576 35.81504825 -8.73828125 36.26171875 C-14.0169922 35.79867393 -17.93146021 33.86209945 -22.30078125 30.94921875 C-21.64078125 29.29921875 -20.98078125 27.64921875 -20.30078125 25.94921875 C-17.30078125 25.94921875 -17.30078125 25.94921875 -14.48828125 27.44921875 C-11.06160124 29.06177405 -9.03536863 29.37360368 -5.30078125 28.94921875 C-3.08955344 27.19568325 -3.08955344 27.19568325 -3.24609375 25.04296875 C-4.89907047 21.76150386 -7.95498177 20.85711313 -11.17578125 19.44921875 C-19.14691544 15.92259574 -19.14691544 15.92259574 -21.30078125 11.94921875 C-21.82873618 7.80100145 -21.7769127 5.71443001 -19.55078125 2.13671875 C-13.58155258 -3.66669801 -7.39466545 -2.74575986 0 0 Z " fill="#141A1D" transform="translate(460.30078125,675.05078125)"/>
<path d="M0 0 C1.69921875 0.94921875 1.69921875 0.94921875 3.69921875 3.94921875 C2.70921875 5.26921875 1.71921875 6.58921875 0.69921875 7.94921875 C0.03921875 7.61921875 -0.62078125 7.28921875 -1.30078125 6.94921875 C-5.16139158 5.66234864 -8.24228408 5.81164257 -12.30078125 5.94921875 C-12.63078125 7.26921875 -12.96078125 8.58921875 -13.30078125 9.94921875 C-9.22148328 12.53277413 -4.96160468 14.60244533 -0.60546875 16.66796875 C1.64664081 17.91998898 3.12977012 18.91344833 4.69921875 20.94921875 C5.22501535 25.60627434 5.39262845 27.81004568 2.94921875 31.82421875 C-1.04367148 35.59528174 -4.39381578 36.43212256 -9.7734375 36.3515625 C-14.39767087 35.6154017 -18.29859495 33.28870135 -22.30078125 30.94921875 C-21.64078125 29.62921875 -20.98078125 28.30921875 -20.30078125 26.94921875 C-16.30078125 26.94921875 -16.30078125 26.94921875 -14.05078125 27.94921875 C-10.32133096 29.30538249 -7.2578637 29.08335714 -3.30078125 28.94921875 C-2.97078125 26.96921875 -2.64078125 24.98921875 -2.30078125 22.94921875 C-3.08453125 22.72234375 -3.86828125 22.49546875 -4.67578125 22.26171875 C-18.02336676 17.42897227 -18.02336676 17.42897227 -21.30078125 11.94921875 C-21.82873618 7.80100145 -21.7769127 5.71443001 -19.55078125 2.13671875 C-13.58155258 -3.66669801 -7.39466545 -2.74575986 0 0 Z " fill="#101519" transform="translate(531.30078125,675.05078125)"/>
<path d="M0 0 C14.29037026 -0.07004986 28.58071394 -0.122769 42.87122059 -0.15543652 C49.50641128 -0.17111285 56.14148688 -0.19238718 62.77661133 -0.22631836 C69.17620161 -0.25884137 75.57568099 -0.27683818 81.97534752 -0.28463173 C84.42066889 -0.29018792 86.86598398 -0.30103734 89.31125832 -0.31719017 C92.72822968 -0.33887029 96.14473885 -0.34197083 99.56176758 -0.34057617 C100.57956299 -0.351362 101.5973584 -0.36214783 102.64599609 -0.3732605 C103.57567703 -0.36913651 104.50535797 -0.36501251 105.46321106 -0.36076355 C106.27162351 -0.36352893 107.08003595 -0.36629431 107.91294575 -0.36914349 C110.55208319 0.09764859 111.42991936 0.85208507 113 3 C113.65439093 9.10764873 113.65439093 9.10764873 111.625 11.875 C108.83327026 13.80773598 107.10994697 14.12758224 103.75550842 14.14044189 C102.42003716 14.14900711 102.42003716 14.14900711 101.05758667 14.15774536 C100.07831207 14.15886322 99.09903748 14.15998108 98.09008789 14.16113281 C96.54606041 14.16858017 96.54606041 14.16858017 94.97084045 14.17617798 C91.55477234 14.1908219 88.13875064 14.19760476 84.72265625 14.203125 C82.35615537 14.2088739 79.98965452 14.21463166 77.62315369 14.22039795 C72.65737693 14.2309138 67.6916164 14.23675288 62.72583008 14.24023438 C56.35206716 14.24572523 49.97851722 14.26976358 43.60482121 14.29820633 C38.71589016 14.316796 33.82701082 14.32203631 28.93804741 14.32357025 C26.5876289 14.3266048 24.23721146 14.33466013 21.88682747 14.34775543 C18.60415378 14.3647417 15.32200601 14.36295393 12.03930664 14.35644531 C11.06205627 14.3656601 10.08480591 14.37487488 9.07794189 14.3843689 C7.73824089 14.37601517 7.73824089 14.37601517 6.37147522 14.36749268 C5.59515779 14.36895924 4.81884035 14.3704258 4.01899815 14.3719368 C1.50162851 13.90819076 0.6086944 12.93684868 -1 11 C-0.43493303 11.00184359 0.13013393 11.00368717 0.71232414 11.00558662 C14.44921259 11.04971762 28.18608866 11.08270556 41.92303276 11.10362434 C48.56606556 11.11407935 55.20904735 11.1282698 61.85205078 11.15087891 C68.2581139 11.17254614 74.66412784 11.18455568 81.07022476 11.18975449 C83.51915385 11.19346127 85.96808012 11.20069925 88.41698837 11.21146011 C91.83648329 11.22589367 95.25577269 11.22798136 98.67529297 11.22705078 C100.207379 11.23783661 100.207379 11.23783661 101.77041626 11.24884033 C102.69872253 11.246091 103.62702881 11.24334167 104.58346558 11.24050903 C105.39279982 11.24235262 106.20213406 11.24419621 107.03599358 11.24609566 C109.23447646 11.17466034 109.23447646 11.17466034 111 9 C110.9049261 6.9519572 110.9049261 6.9519572 110 5 C106.87777655 2.9185177 106.16532054 2.746736 102.61506653 2.7215271 C101.27103004 2.70478188 101.27103004 2.70478188 99.89984131 2.68769836 C98.91944885 2.68553818 97.9390564 2.68337799 96.92895508 2.68115234 C95.89463852 2.67110672 94.86032196 2.6610611 93.79466248 2.65071106 C90.36962448 2.61977501 86.94466502 2.60281486 83.51953125 2.5859375 C81.14726582 2.56723425 78.7750071 2.54766148 76.40275574 2.5272522 C70.1540217 2.47583601 63.90526607 2.43626104 57.65643311 2.39910889 C51.28196836 2.35912868 44.90759416 2.30800908 38.53320312 2.2578125 C26.02220008 2.16094089 13.51114518 2.07619396 1 2 C0.67 1.34 0.34 0.68 0 0 Z " fill="#044C56" transform="translate(205,463)"/>
<path d="M0 0 C10.23 0 20.46 0 31 0 C31 2.31 31 4.62 31 7 C27.04 7 23.08 7 19 7 C19 17.23 19 27.46 19 38 C16.69 38 14.38 38 12 38 C12 27.77 12 17.54 12 7 C8.04 7 4.08 7 0 7 C0 4.69 0 2.38 0 0 Z " fill="#1F2529" transform="translate(826,617)"/>
<path d="M0 0 C5.09925726 -0.64821067 5.09925726 -0.64821067 8 0 C10.30863601 2.15872458 11.58123437 4.70162298 13 7.5 C14.32 9.975 15.64 12.45 17 15 C19.64 10.05 22.28 5.1 25 0 C27.64 0 30.28 0 33 0 C31.75133587 2.35488357 30.50110525 4.70891371 29.25 7.0625 C28.90195312 7.71927734 28.55390625 8.37605469 28.1953125 9.05273438 C27.84726562 9.70693359 27.49921875 10.36113281 27.140625 11.03515625 C26.78967773 11.69845947 26.43873047 12.3617627 26.07714844 13.04516602 C25.37680844 14.3161593 24.64167306 15.56879378 23.86816406 16.79663086 C21.18045353 21.08598021 20.44153984 24.40957924 20.25 29.4375 C20.19328125 30.67371094 20.1365625 31.90992188 20.078125 33.18359375 C20.05234375 34.11300781 20.0265625 35.04242187 20 36 C17.69 36 15.38 36 13 36 C13.06703125 35.14921875 13.1340625 34.2984375 13.203125 33.421875 C13.3613823 21.02505282 7.87355692 12.79241127 1.08569336 2.71142578 C0 1 0 1 0 0 Z " fill="#12171B" transform="translate(470,674)"/>
<path d="M0 0 C9.9 0 19.8 0 30 0 C30 1.98 30 3.96 30 6 C26.04 6 22.08 6 18 6 C18 15.9 18 25.8 18 36 C15.69 36 13.38 36 11 36 C11 26.1 11 16.2 11 6 C7.37 6 3.74 6 0 6 C0 4.02 0 2.04 0 0 Z " fill="#1B2226" transform="translate(542,674)"/>
<path d="M0 0 C9.9 0 19.8 0 30 0 C29.01 1.485 29.01 1.485 28 3 C28 2.34 28 1.68 28 1 C19.09 1 10.18 1 1 1 C1 14.86 1 28.72 1 43 C10.57 43 20.14 43 30 43 C30 41.68 30 40.36 30 39 C22.41 39 14.82 39 7 39 C5.69910169 36.39820337 5.83159922 34.4030812 5.8125 31.5 C5.79832031 30.5203125 5.78414062 29.540625 5.76953125 28.53125 C6 26 6 26 8 24 C9.87939453 23.77294922 9.87939453 23.77294922 12.1328125 23.8046875 C12.93847656 23.81113281 13.74414062 23.81757812 14.57421875 23.82421875 C15.83685547 23.84935547 15.83685547 23.84935547 17.125 23.875 C18.39923828 23.88853516 18.39923828 23.88853516 19.69921875 23.90234375 C21.79959884 23.92594353 23.89983444 23.96181517 26 24 C26 22.68 26 21.36 26 20 C25.14450562 20.00785522 25.14450562 20.00785522 24.27172852 20.01586914 C21.70199677 20.03658221 19.13228253 20.0496419 16.5625 20.0625 C15.66466797 20.07087891 14.76683594 20.07925781 13.84179688 20.08789062 C12.56079102 20.09272461 12.56079102 20.09272461 11.25390625 20.09765625 C10.46314697 20.10289307 9.6723877 20.10812988 8.85766602 20.11352539 C7 20 7 20 6 19 C5.92755947 16.98035801 5.91622812 14.95832876 5.9375 12.9375 C5.94652344 11.83277344 5.95554687 10.72804688 5.96484375 9.58984375 C5.97644531 8.73519531 5.98804688 7.88054688 6 7 C6.66 6.67 7.32 6.34 8 6 C8 10.29 8 14.58 8 19 C14.6 19 21.2 19 28 19 C28 21.31 28 23.62 28 26 C21.4 26 14.8 26 8 26 C8 29.96 8 33.92 8 38 C15.59 38 23.18 38 31 38 C31 40.31 31 42.62 31 45 C20.77 45 10.54 45 0 45 C0 30.15 0 15.3 0 0 Z " fill="#070A0C" transform="translate(639,551)"/>
<path d="M0 0 C8.25 0 16.5 0 25 0 C25 1.98 25 3.96 25 6 C19.06 6 13.12 6 7 6 C7 5.67 7 5.34 7 5 C12.61 5 18.22 5 24 5 C24 4.01 24 3.02 24 2 C16.74 2 9.48 2 2 2 C2 13.22 2 24.44 2 36 C9.59 36 17.18 36 25 36 C25 35.01 25 34.02 25 33 C24.14450562 33.00785522 24.14450562 33.00785522 23.27172852 33.01586914 C20.70199677 33.03658221 18.13228253 33.0496419 15.5625 33.0625 C14.66466797 33.07087891 13.76683594 33.07925781 12.84179688 33.08789062 C11.56079102 33.09272461 11.56079102 33.09272461 10.25390625 33.09765625 C9.46314697 33.10289307 8.6723877 33.10812988 7.85766602 33.11352539 C6 33 6 33 5 32 C4.90176063 30.33570949 4.87026369 28.66718069 4.875 27 C4.87242187 26.0925 4.86984375 25.185 4.8671875 24.25 C5 22 5 22 6 21 C8.69654854 20.92680379 11.36691458 20.90757463 14.0625 20.9375 C14.82111328 20.94201172 15.57972656 20.94652344 16.36132812 20.95117188 C18.24091871 20.9629932 20.12046899 20.98092922 22 21 C22 20.01 22 19.02 22 18 C17.05 18 12.1 18 7 18 C7 17.67 7 17.34 7 17 C12.28 16.67 17.56 16.34 23 16 C23 17.98 23 19.96 23 22 C17.72 22 12.44 22 7 22 C7 25.3 7 28.6 7 32 C13.27 32 19.54 32 26 32 C26 33.98 26 35.96 26 38 C17.42 38 8.84 38 0 38 C0 25.46 0 12.92 0 0 Z " fill="#010305" transform="translate(660,617)"/>
<path d="M0 0 C8.25 0 16.5 0 25 0 C25 1.98 25 3.96 25 6 C19.06 6 13.12 6 7 6 C7 8.97 7 11.94 7 15 C12.28 15 17.56 15 23 15 C23 16.98 23 18.96 23 21 C17.72 21 12.44 21 7 21 C7 20.67 7 20.34 7 20 C11.62 20 16.24 20 21 20 C21 19.01 21 18.02 21 17 C20.01257813 17.02320313 19.02515625 17.04640625 18.0078125 17.0703125 C16.72648438 17.08835937 15.44515625 17.10640625 14.125 17.125 C12.84882812 17.14820313 11.57265625 17.17140625 10.2578125 17.1953125 C7 17 7 17 5 15 C4.76953125 12.87109375 4.76953125 12.87109375 4.8125 10.4375 C4.81894531 9.63183594 4.82539062 8.82617188 4.83203125 7.99609375 C5 6 5 6 6 5 C8.86267567 4.92674832 11.700719 4.90761795 14.5625 4.9375 C15.36880859 4.94201172 16.17511719 4.94652344 17.00585938 4.95117188 C19.00393756 4.96299482 21.00197783 4.98093086 23 5 C23 3.68 23 2.36 23 1 C16.07 1 9.14 1 2 1 C2 12.22 2 23.44 2 35 C9.92 35 17.84 35 26 35 C26 35.33 26 35.66 26 36 C17.42 36 8.84 36 0 36 C0 24.12 0 12.24 0 0 Z " fill="#040609" transform="translate(580,674)"/>
<path d="M0 0 C8.25 0 16.5 0 25 0 C25 1.98 25 3.96 25 6 C19.06 6 13.12 6 7 6 C7 5.67 7 5.34 7 5 C12.61 5 18.22 5 24 5 C24 4.01 24 3.02 24 2 C16.74 2 9.48 2 2 2 C2 13.22 2 24.44 2 36 C9.59 36 17.18 36 25 36 C25 35.01 25 34.02 25 33 C19.06 33 13.12 33 7 33 C7 32.67 7 32.34 7 32 C13.6 32 20.2 32 27 32 C27 33.98 27 35.96 27 38 C18.09 38 9.18 38 0 38 C0 25.46 0 12.92 0 0 Z " fill="#1A1D20" transform="translate(748,617)"/>
<path d="M0 0 C2 2 2 2 2.9375 4.5625 C3.288125 5.366875 3.63875 6.17125 4 7 C4.99 7.33 5.98 7.66 7 8 C7.9831543 9.64233398 7.9831543 9.64233398 8.82421875 11.74609375 C9.28344727 12.87821289 9.28344727 12.87821289 9.75195312 14.03320312 C10.21504883 15.22333008 10.21504883 15.22333008 10.6875 16.4375 C11.00783203 17.22705078 11.32816406 18.01660156 11.65820312 18.83007812 C14 24.6870669 14 24.6870669 14 27 C11.69 27 9.38 27 7 27 C4 21.375 4 21.375 4 18 C-1.28 18 -6.56 18 -12 18 C-12 17.67 -12 17.34 -12 17 C-8.37 16.67 -4.74 16.34 -1 16 C-4.3 15.67 -7.6 15.34 -11 15 C-10.67 13.68 -10.34 12.36 -10 11 C-10 11.66 -10 12.32 -10 13 C-6.37 13 -2.74 13 1 13 C0.2265625 10.8653125 0.2265625 10.8653125 -0.5625 8.6875 C-2.125 4.375 -2.125 4.375 -1 1 C-0.67 0.67 -0.34 0.34 0 0 Z " fill="#11161A" transform="translate(593,628)"/>
<path d="M0 0 C2.31 0 4.62 0 7 0 C8.625 2.75 8.625 2.75 10 6 C9.3125 8.3125 9.3125 8.3125 8 10 C7.01 10.495 7.01 10.495 6 11 C6.99 15.29 7.98 19.58 9 24 C5.37 24 1.74 24 -2 24 C-1.21875 21.75390625 -0.4375 19.5078125 0.34375 17.26171875 C1.13933107 14.91230578 1.13933107 14.91230578 1 12 C0.01 12 -0.98 12 -2 12 C-3.12377697 8.69564916 -2.89554742 6.9493138 -1.5625 3.75 C-1.27503906 3.04359375 -0.98757813 2.3371875 -0.69140625 1.609375 C-0.46324219 1.07828125 -0.23507812 0.5471875 0 0 Z " fill="#1B2227" transform="translate(499,617)"/>
<path d="M0 0 C3.16598865 2.62431507 4.32449241 5.65959023 5.8125 9.4375 C6.50279297 11.13712891 6.50279297 11.13712891 7.20703125 12.87109375 C8 16 8 16 7.13671875 18.41015625 C6.76160156 18.93480469 6.38648438 19.45945312 6 20 C5.01 17.69 4.02 15.38 3 13 C2.34 13 1.68 13 1 13 C1.66 16.63 2.32 20.26 3 24 C-0.63 24 -4.26 24 -8 24 C-6.35 19.05 -4.7 14.1 -3 9 C-3.66 8.34 -4.32 7.68 -5 7 C-5.33 6.34 -5.66 5.68 -6 5 C-5.67 4.01 -5.34 3.02 -5 2 C-3.35 2 -1.7 2 0 2 C0 1.34 0 0.68 0 0 Z " fill="#191E23" transform="translate(591,617)"/>
<path d="M0 0 C2.31 0 4.62 0 7 0 C7 12.54 7 25.08 7 38 C4.69 38 2.38 38 0 38 C0 37.01 0 36.02 0 35 C1.32 35.33 2.64 35.66 4 36 C4 25.11 4 14.22 4 3 C3.34 3 2.68 3 2 3 C2 10.26 2 17.52 2 25 C1.34 25 0.68 25 0 25 C0 16.75 0 8.5 0 0 Z " fill="#25292C" transform="translate(811,617)"/>
<path d="M0 0 C0.33 0 0.66 0 1 0 C1 10.56 1 21.12 1 32 C-0.98 32 -2.96 32 -5 32 C-5 21.77 -5 11.54 -5 1 C-4.34 1 -3.68 1 -3 1 C-2.67 2.32 -2.34 3.64 -2 5 C-1.34 3.35 -0.68 1.7 0 0 Z " fill="#0D1215" transform="translate(844,623)"/>
<path d="M0 0 C2.35729943 2.19138979 4.02057098 4.43931973 5.6875 7.1875 C6.34298828 8.26064453 6.34298828 8.26064453 7.01171875 9.35546875 C7.33785156 9.89816406 7.66398438 10.44085937 8 11 C8.99 9.35 9.98 7.7 11 6 C11.33 6.66 11.66 7.32 12 8 C14.01669827 9.13350534 14.01669827 9.13350534 16 10 C14.90959673 12.00753698 13.80226428 14.00588751 12.6875 16 C12.07261719 17.11375 11.45773437 18.2275 10.82421875 19.375 C10.22222656 20.24125 9.62023437 21.1075 9 22 C8.01 22 7.02 22 6 22 C2.7 16.06 -0.6 10.12 -4 4 C-3.34 3.67 -2.68 3.34 -2 3 C-1.67 2.34 -1.34 1.68 -1 1 C-0.67 0.67 -0.34 0.34 0 0 Z " fill="#13181C" transform="translate(627,682)"/>
<path d="M0 0 C6.1128377 -0.38205236 11.64464873 -0.25587394 17 3 C19.25509571 5.16373789 21.17010126 7.47002636 23 10 C21.25 11.5625 21.25 11.5625 19 13 C16.35738642 12.8295088 15.03945068 12.02784754 12.875 10.5 C9.27608735 8.62230644 6.2187684 8.5070755 2.20703125 8.30859375 C0 8 0 8 -2 6 C-1.34 5.01 -0.68 4.02 0 3 C0 2.01 0 1.02 0 0 Z " fill="#151B20" transform="translate(456,550)"/>
<path d="M0 0 C0.33 0 0.66 0 1 0 C1 3.3 1 6.6 1 10 C6.61 10 12.22 10 18 10 C18 11.98 18 13.96 18 16 C12.39 16 6.78 16 1 16 C1 19.3 1 22.6 1 26 C0.67 26 0.34 26 0 26 C-0.33 23.36 -0.66 20.72 -1 18 C-1.33 20.31 -1.66 22.62 -2 25 C-2.33 25 -2.66 25 -3 25 C-3 18.4 -3 11.8 -3 5 C-2.34 4.67 -1.68 4.34 -1 4 C-0.34786708 1.97536745 -0.34786708 1.97536745 0 0 Z " fill="#0B0F12" transform="translate(754,623)"/>
<path d="M0 0 C1.69921875 0.94921875 1.69921875 0.94921875 3.69921875 3.94921875 C2.04921875 5.26921875 0.39921875 6.58921875 -1.30078125 7.94921875 C-1.79578125 7.63984375 -2.29078125 7.33046875 -2.80078125 7.01171875 C-5.1735489 6.0032925 -6.83203835 5.70560615 -9.36328125 5.44921875 C-13.30078125 4.94921875 -13.30078125 4.94921875 -16.30078125 2.94921875 C-17.29078125 3.44421875 -17.29078125 3.44421875 -18.30078125 3.94921875 C-18.79140315 7.07693337 -19.0065997 9.8456935 -18.30078125 12.94921875 C-15.91741532 15.23850444 -13.30689804 16.61391241 -10.30078125 17.94921875 C-11.29078125 18.27921875 -12.28078125 18.60921875 -13.30078125 18.94921875 C-16.87208158 16.9084757 -19.00580215 15.39168739 -21.30078125 11.94921875 C-21.75759932 7.8378561 -21.75809907 5.68419382 -19.55078125 2.13671875 C-13.58155258 -3.66669801 -7.39466545 -2.74575986 0 0 Z " fill="#0D1114" transform="translate(460.30078125,675.05078125)"/>
<path d="M0 0 C2.64 0 5.28 0 8 0 C8 14.85 8 29.7 8 45 C0 45 0 45 -2.3125 43.03125 C-3.1478125 41.77828125 -3.1478125 41.77828125 -4 40.5 C-4.86625 39.24703125 -4.86625 39.24703125 -5.75 37.96875 C-6.1625 37.3190625 -6.575 36.669375 -7 36 C-6.67 35.34 -6.34 34.68 -6 34 C-5.63648438 34.56589844 -5.27296875 35.13179687 -4.8984375 35.71484375 C-4.14433594 36.81505859 -4.14433594 36.81505859 -3.375 37.9375 C-2.88773438 38.66839844 -2.40046875 39.39929688 -1.8984375 40.15234375 C0.29099674 42.63449211 0.29099674 42.63449211 6 43 C6 29.14 6 15.28 6 1 C4.35 1 2.7 1 1 1 C1 10.24 1 19.48 1 29 C0.67 29 0.34 29 0 29 C0 19.43 0 9.86 0 0 Z " fill="#030609" transform="translate(713,551)"/>
<path d="M0 0 C2.31 0 4.62 0 7 0 C9 2.3125 9 2.3125 10 5 C9.67 5.99 9.34 6.98 9 8 C8.34 6.02 7.68 4.04 7 2 C5.35 2 3.7 2 2 2 C2 13.22 2 24.44 2 36 C2.99 36 3.98 36 5 36 C5 28.41 5 20.82 5 13 C5.66 13.33 6.32 13.66 7 14 C7 21.92 7 29.84 7 38 C4.69 38 2.38 38 0 38 C0 25.46 0 12.92 0 0 Z " fill="#090C0F" transform="translate(697,617)"/>
<path d="M0 0 C9.57 0 19.14 0 29 0 C29 1.98 29 3.96 29 6 C21.74 6 14.48 6 7 6 C7 5.01 7 4.02 7 3 C13.27 3 19.54 3 26 3 C26 2.34 26 1.68 26 1 C17.75 1 9.5 1 1 1 C1 14.2 1 27.4 1 41 C9.91 41 18.82 41 28 41 C28 41.33 28 41.66 28 42 C18.76 42 9.52 42 0 42 C0 28.14 0 14.28 0 0 Z " fill="#242D31" transform="translate(640,552)"/>
<path d="M0 0 C1.65 0 3.3 0 5 0 C6.6875 1.8125 6.6875 1.8125 8 4 C8.99 5.485 8.99 5.485 10 7 C9.34 7.66 8.68 8.32 8 9 C7.34 9 6.68 9 6 9 C6 9.99 6 10.98 6 12 C5.34 12 4.68 12 4 12 C3.67 19.26 3.34 26.52 3 34 C2.01 34 1.02 34 0 34 C0 22.78 0 11.56 0 0 Z " fill="#1B2328" transform="translate(699,619)"/>
<path d="M0 0 C1.890625 0.0859375 1.890625 0.0859375 4 1 C7.52545429 6.88194216 9.77947226 13.14064408 9 20 C8.34 20 7.68 20 7 20 C6.67 20.66 6.34 21.32 6 22 C5.67 21.67 5.34 21.34 5 21 C2.30764224 20.76321284 -0.36498156 20.57801975 -3.0625 20.4375 C-4.20041992 20.37272461 -4.20041992 20.37272461 -5.36132812 20.30664062 C-7.24065438 20.20026367 -9.12030244 20.09960066 -11 20 C-11 19.67 -11 19.34 -11 19 C-9.73542969 18.92652344 -9.73542969 18.92652344 -8.4453125 18.8515625 C-7.34960938 18.77679687 -6.25390625 18.70203125 -5.125 18.625 C-4.03445313 18.55539062 -2.94390625 18.48578125 -1.8203125 18.4140625 C1.13046474 18.26746509 1.13046474 18.26746509 3 16 C2.34 15.34 1.68 14.68 1 14 C0.11328125 11.9765625 0.11328125 11.9765625 -0.6875 9.625 C-1.09548828 8.46871094 -1.09548828 8.46871094 -1.51171875 7.2890625 C-2.0473117 4.77820275 -1.86963258 3.39280723 -1 1 C-0.67 0.67 -0.34 0.34 0 0 Z " fill="#161C20" transform="translate(506,625)"/>
<path d="M0 0 C8.20100503 -0.16080402 8.20100503 -0.16080402 12 1 C13.01806361 1.98160403 14.01591863 2.98433083 15 4 C16.18425225 4.94159923 17.37184709 5.87900755 18.5625 6.8125 C21.79221391 9.53118323 23.09861151 11.79352036 24 16 C22.68 16.99 21.36 17.98 20 19 C19.54109375 18.46890625 19.0821875 17.9378125 18.609375 17.390625 C17.99578125 16.68421875 17.3821875 15.9778125 16.75 15.25 C16.11449219 14.5178125 15.47898437 13.785625 14.82421875 13.03125 C12.96494207 10.89729771 12.96494207 10.89729771 10.5625 8.75 C9 7 9 7 9 3 C6.03 3 3.06 3 0 3 C0 2.01 0 1.02 0 0 Z " fill="#191F24" transform="translate(507,550)"/>
<path d="M0 0 C2.97 0 5.94 0 9 0 C8.67 0.99 8.34 1.98 8 3 C8 2.34 8 1.68 8 1 C5.69 1 3.38 1 1 1 C1 14.86 1 28.72 1 43 C2.65 43 4.3 43 6 43 C6 33.43 6 23.86 6 14 C6.66 14.33 7.32 14.66 8 15 C8 24.9 8 34.8 8 45 C5.36 45 2.72 45 0 45 C0 30.15 0 15.3 0 0 Z " fill="#06090B" transform="translate(682,551)"/>
<path d="M0 0 C2.31 0 4.62 0 7 0 C9 2.375 9 2.375 10 5 C9.67 5.66 9.34 6.32 9 7 C8.34 5.35 7.68 3.7 7 2 C5.35 2 3.7 2 2 2 C2 13.22 2 24.44 2 36 C2.99 36 3.98 36 5 36 C5 28.41 5 20.82 5 13 C5.33 13 5.66 13 6 13 C6 21.25 6 29.5 6 38 C4.02 38 2.04 38 0 38 C0 25.46 0 12.92 0 0 Z " fill="#0B0F12" transform="translate(438,617)"/>
<path d="M0 0 C1.2065625 0.0309375 1.2065625 0.0309375 2.4375 0.0625 C2.4375 0.7225 2.4375 1.3825 2.4375 2.0625 C0.7875 2.0625 -0.8625 2.0625 -2.5625 2.0625 C-1.99878586 5.33204202 -1.06287734 6.88825883 1.4375 9.0625 C0.7775 9.0625 0.1175 9.0625 -0.5625 9.0625 C-0.7171875 10.361875 -0.7171875 10.361875 -0.875 11.6875 C-1.59648414 15.22933123 -2.83373261 17.90562042 -4.5625 21.0625 C-5.2225 21.0625 -5.8825 21.0625 -6.5625 21.0625 C-6.8925 22.3825 -7.2225 23.7025 -7.5625 25.0625 C-8.8825 25.0625 -10.2025 25.0625 -11.5625 25.0625 C-11.0090559 19.26671044 -9.35134517 14.51894659 -7.0625 9.1875 C-6.58103516 8.03121094 -6.58103516 8.03121094 -6.08984375 6.8515625 C-3.24013277 0.07902763 -3.24013277 0.07902763 0 0 Z " fill="#181E22" transform="translate(588.5625,616.9375)"/>
<path d="M0 0 C0.33 0 0.66 0 1 0 C1 12.21 1 24.42 1 37 C2.65 37 4.3 37 6 37 C6 25.12 6 13.24 6 1 C6.66 1.33 7.32 1.66 8 2 C8 14.21 8 26.42 8 39 C5.36 39 2.72 39 0 39 C0 26.13 0 13.26 0 0 Z " fill="#050709" transform="translate(608,557)"/>
<path d="M0 0 C5.28 0 10.56 0 16 0 C16.103125 2.413125 16.20625 4.82625 16.3125 7.3125 C16.38078003 8.44619019 16.38078003 8.44619019 16.45043945 9.6027832 C16.48828125 11.42578125 16.48828125 11.42578125 16 15 C13.525 16.485 13.525 16.485 11 18 C11.66 13.05 12.32 8.1 13 3 C11.35 3.33 9.7 3.66 8 4 C8.33 4.99 8.66 5.98 9 7 C6.03 7 3.06 7 0 7 C0 4.69 0 2.38 0 0 Z " fill="#333638" transform="translate(632,635)"/>
<path d="M0 0 C2.31 0 4.62 0 7 0 C7 12.54 7 25.08 7 38 C4.69 38 2.38 38 0 38 C0 30.08 0 22.16 0 14 C0.33 14 0.66 14 1 14 C1 21.26 1 28.52 1 36 C2.32 36 3.64 36 5 36 C5 24.78 5 13.56 5 2 C3.35 2 1.7 2 0 2 C-0.33 2.66 -0.66 3.32 -1 4 C-0.67 2.68 -0.34 1.36 0 0 Z " fill="#070A0D" transform="translate(728,617)"/>
<path d="M0 0 C2.31 0 4.62 0 7 0 C6.67 0.66 6.34 1.32 6 2 C4.68 2 3.36 2 2 2 C2 13.22 2 24.44 2 36 C3.32 36 4.64 36 6 36 C6 28.08 6 20.16 6 12 C6.33 12 6.66 12 7 12 C7 20.58 7 29.16 7 38 C4.69 38 2.38 38 0 38 C0 25.46 0 12.92 0 0 Z " fill="#020509" transform="translate(529,617)"/>
<path d="M0 0 C2.31 0 4.62 0 7 0 C7 12.54 7 25.08 7 38 C4.69 38 2.38 38 0 38 C0 37.34 0 36.68 0 36 C1.32 36 2.64 36 4 36 C4.33 24.78 4.66 13.56 5 2 C3.68 2 2.36 2 1 2 C1 9.59 1 17.18 1 25 C0.67 25 0.34 25 0 25 C0 16.75 0 8.5 0 0 Z " fill="#05070A" transform="translate(555,617)"/>
<path d="M0 0 C0.61875 0.185625 1.2375 0.37125 1.875 0.5625 C4.04160178 1.23686176 4.04160178 1.23686176 6 0 C5.42554084 5.60097679 3.36986537 9.95448018 1 15 C7.435 14.505 7.435 14.505 14 14 C14 14.66 14 15.32 14 16 C7.565 16.495 7.565 16.495 1 17 C0.67 15.35 0.34 13.7 0 12 C-4.63768531 15.6438956 -6.07369925 20.63094897 -8 26 C-9.35375421 22.32498858 -8.63213623 20.33873193 -7.12890625 16.796875 C-6.71962891 15.8171875 -6.31035156 14.8375 -5.88867188 13.828125 C-5.45103516 12.81234375 -5.01339844 11.7965625 -4.5625 10.75 C-3.9118457 9.203125 -3.9118457 9.203125 -3.24804688 7.625 C-2.17538013 5.07888993 -1.09241991 2.53768289 0 0 Z " fill="#0C1013" transform="translate(496,626)"/>
<path d="M0 0 C-0.27714844 0.4846875 -0.55429687 0.969375 -0.83984375 1.46875 C-4.23989549 7.7606607 -5 12.81759876 -5 20 C-5.66 20 -6.32 20 -7 20 C-7.33 20.66 -7.66 21.32 -8 22 C-8.66 21.34 -9.32 20.68 -10 20 C-10.33 20 -10.66 20 -11 20 C-11.57628458 6.80948617 -11.57628458 6.80948617 -8 2 C-3.78947368 -1.26315789 -3.78947368 -1.26315789 0 0 Z " fill="#171E23" transform="translate(624,622)"/>
<path d="M0 0 C2.98704569 0.49784095 4.39324263 1.26216175 7 3 C5.49687867 6.82612703 3.37198449 8.70091967 0 11 C-4.44615362 12.93311027 -8.17731511 13.1929074 -13 13 C-10.03312999 11.35173889 -7.34373475 10.55728913 -4 10 C-6.49505962 7.50494038 -7.67328888 7.64051624 -11.125 7.375 C-12.03507812 7.30023437 -12.94515625 7.22546875 -13.8828125 7.1484375 C-14.58148438 7.09945312 -15.28015625 7.05046875 -16 7 C-16 6.67 -16 6.34 -16 6 C-15.12988281 5.96132813 -15.12988281 5.96132813 -14.2421875 5.921875 C-8.23859586 5.48597066 -4.36043457 4.36043457 0 0 Z " fill="#101418" transform="translate(472,583)"/>
<path d="M0 0 C1.32 0.33 2.64 0.66 4 1 C4 3.64 4 6.28 4 9 C8.95 9 13.9 9 19 9 C19 10.65 19 12.3 19 14 C17.87980469 14.06058594 16.75960937 14.12117187 15.60546875 14.18359375 C14.13280016 14.26801424 12.66014456 14.35266149 11.1875 14.4375 C10.44951172 14.47681641 9.71152344 14.51613281 8.95117188 14.55664062 C5.76928658 14.74381035 3.03837622 14.98720793 0 16 C0 10.72 0 5.44 0 0 Z " fill="#161D22" transform="translate(663,624)"/>
<path d="M0 0 C8.25 0 16.5 0 25 0 C25 1.98 25 3.96 25 6 C19.06 6 13.12 6 7 6 C7 5.67 7 5.34 7 5 C12.61 5 18.22 5 24 5 C24 4.01 24 3.02 24 2 C16.74 2 9.48 2 2 2 C2 13.22 2 24.44 2 36 C1.67 36 1.34 36 1 36 C0.67 24.12 0.34 12.24 0 0 Z " fill="#050A0C" transform="translate(660,617)"/>
<path d="M0 0 C0.61875 0.639375 1.2375 1.27875 1.875 1.9375 C5.44330848 5.40085823 7.7436765 5.11035611 12.625 5.0625 C14.40777344 5.04896484 14.40777344 5.04896484 16.2265625 5.03515625 C17.59941406 5.01775391 17.59941406 5.01775391 19 5 C18.67 6.65 18.34 8.3 18 10 C11.38687294 12.11620066 6.10637103 11.05318552 0 8 C-0.99 7.34 -1.98 6.68 -3 6 C-1.125 1.125 -1.125 1.125 0 0 Z " fill="#181E22" transform="translate(441,700)"/>
<path d="M0 0 C0.99 0 1.98 0 3 0 C3 1.98 3 3.96 3 6 C-0.96 6 -4.92 6 -9 6 C-9 15.9 -9 25.8 -9 36 C-10.98 36 -12.96 36 -15 36 C-15 26.1 -15 16.2 -15 6 C-14.67 6 -14.34 6 -14 6 C-14 15.57 -14 25.14 -14 35 C-12.68 35 -11.36 35 -10 35 C-10.00523682 34.09644775 -10.01047363 33.19289551 -10.01586914 32.26196289 C-10.03287686 28.92048511 -10.04543333 25.57905308 -10.05493164 22.23754883 C-10.05997101 20.78929927 -10.06680253 19.34105483 -10.07543945 17.89282227 C-10.08752247 15.81525412 -10.09323211 13.73775303 -10.09765625 11.66015625 C-10.10289307 10.40855713 -10.10812988 9.15695801 -10.11352539 7.86743164 C-10 5 -10 5 -9 4 C-7.31391034 3.92794489 -5.62499341 3.91613932 -3.9375 3.9375 C-3.01839844 3.94652344 -2.09929688 3.95554687 -1.15234375 3.96484375 C-0.44207031 3.97644531 0.26820313 3.98804688 1 4 C0.67 2.68 0.34 1.36 0 0 Z " fill="#000101" transform="translate(569,674)"/>
<path d="M0 0 C2 2 2 2 2.13525391 5.34814453 C2.09291058 6.77671903 2.03924547 8.20498586 1.9765625 9.6328125 C1.95153656 10.38464813 1.92651062 11.13648376 1.90072632 11.91110229 C1.81844911 14.31618839 1.72189139 16.72046257 1.625 19.125 C1.5667682 20.75387291 1.50946475 22.3827793 1.453125 24.01171875 C1.31285922 28.00828082 1.15978257 32.00417254 1 36 C2.32 36 3.64 36 5 36 C5 28.08 5 20.16 5 12 C7 14 7 14 7.22705078 16.43017578 C7.21657715 17.4251709 7.20610352 18.42016602 7.1953125 19.4453125 C7.18564453 21.05986328 7.18564453 21.05986328 7.17578125 22.70703125 C7.15902344 23.83496094 7.14226563 24.96289062 7.125 26.125 C7.11597656 27.26066406 7.10695313 28.39632812 7.09765625 29.56640625 C7.07403098 32.37781299 7.04109013 35.18880298 7 38 C4.69 38 2.38 38 0 38 C0 25.46 0 12.92 0 0 Z " fill="#020407" transform="translate(785,617)"/>
<path d="M0 0 C0.66 0 1.32 0 2 0 C2.67031719 1.9570868 3.33614683 3.91571113 4 5.875 C4.556875 7.51082031 4.556875 7.51082031 5.125 9.1796875 C6 12 6 12 6 14 C2.37 14 -1.26 14 -5 14 C-1.85714286 4.42857143 -1.85714286 4.42857143 0 0 Z " fill="#F1F2F2" transform="translate(502,627)"/>
<path d="M0 0 C0.66 0 1.32 0 2 0 C2.67260351 1.76858691 3.33788395 3.53996016 4 5.3125 C4.37125 6.29863281 4.7425 7.28476562 5.125 8.30078125 C6 11 6 11 6 14 C2.37 14 -1.26 14 -5 14 C-3.35 9.38 -1.7 4.76 0 0 Z " fill="#F4F5F5" transform="translate(588,627)"/>
<path d="M0 0 C2.64 0 5.28 0 8 0 C8.86646667 1.43011973 9.71781829 2.86940619 10.5625 4.3125 C11.03816406 5.11300781 11.51382812 5.91351562 12.00390625 6.73828125 C13 9 13 9 12 12 C11.01 10.35 10.02 8.7 9 7 C7.67658569 9.82740378 7.67658569 9.82740378 8.8125 11.75390625 C9.204375 12.35074219 9.59625 12.94757812 10 13.5625 C10.66 14.696875 11.32 15.83125 12 17 C11.67 17.66 11.34 18.32 11 19 C9.16309403 16.02302207 7.33107908 13.04306485 5.5 10.0625 C4.97535156 9.21236328 4.45070313 8.36222656 3.91015625 7.48632812 C3.41386719 6.67744141 2.91757812 5.86855469 2.40625 5.03515625 C1.94541016 4.2862915 1.48457031 3.53742676 1.00976562 2.76586914 C0 1 0 1 0 0 Z " fill="#101518" transform="translate(470,674)"/>
<path d="M0 0 C6.6 0 13.2 0 20 0 C20 1.98 20 3.96 20 6 C11.75 6 3.5 6 -5 6 C-5 5.34 -5 4.68 -5 4 C2.59 4 10.18 4 18 4 C18 3.01 18 2.02 18 1 C12.06 1 6.12 1 0 1 C0 0.67 0 0.34 0 0 Z " fill="#06090C" transform="translate(755,649)"/>
<path d="M0 0 C0 0.99 0 1.98 0 3 C1.6396875 2.690625 1.6396875 2.690625 3.3125 2.375 C7 2 7 2 10 4 C9.40832031 4.03738281 8.81664062 4.07476563 8.20703125 4.11328125 C3.46033751 4.50819378 -0.19027074 4.88294879 -4 8 C-5.99897678 11.20266172 -6.35834458 14.01682407 -6.625 17.75 C-6.69976563 18.73484375 -6.77453125 19.7196875 -6.8515625 20.734375 C-6.90054688 21.48203125 -6.94953125 22.2296875 -7 23 C-9.36282683 18.86047393 -9.16645917 15.53532377 -8 11 C-6.83614317 8.22936107 -5.49109031 5.60767422 -4 3 C-5.98 3.66 -7.96 4.32 -10 5 C-5 -1.5 -5 -1.5 0 0 Z " fill="#090D10" transform="translate(627,619)"/>
<path d="M0 0 C0.66 0.33 1.32 0.66 2 1 C3.5195764 1.15123831 5.04472502 1.24881693 6.5703125 1.31640625 C7.91416016 1.37924805 7.91416016 1.37924805 9.28515625 1.44335938 C10.22230469 1.48267578 11.15945313 1.52199219 12.125 1.5625 C13.54232422 1.62727539 13.54232422 1.62727539 14.98828125 1.69335938 C17.32537092 1.79959072 19.6625683 1.90163176 22 2 C22 3.32 22 4.64 22 6 C10.615 5.505 10.615 5.505 -1 5 C-0.67 3.35 -0.34 1.7 0 0 Z " fill="#0E1418" transform="translate(584,703)"/>
<path d="M0 0 C0.639375 0.309375 1.27875 0.61875 1.9375 0.9375 C7.22265264 2.77112439 12.57715092 3.63546242 18 2 C16.75 3.5 16.75 3.5 15 5 C13.68 5 12.36 5 11 5 C11 5.66 11 6.32 11 7 C5.09513742 9.41014799 5.09513742 9.41014799 1.9765625 8.2421875 C0.2666703 7.24416879 -1.37338569 6.12867115 -3 5 C-1.125 1.125 -1.125 1.125 0 0 Z " fill="#13181C" transform="translate(512,701)"/>
<path d="M0 0 C0.433125 0.495 0.86625 0.99 1.3125 1.5 C2.99740483 3.33218192 2.99740483 3.33218192 6 3 C6.33 2.34 6.66 1.68 7 1 C7.433125 1.928125 7.86625 2.85625 8.3125 3.8125 C9.72038627 6.47184073 10.76123556 8.08105905 13 10 C11.35 10.33 9.7 10.66 8 11 C9.98 11.99 11.96 12.98 14 14 C12.375 14.75 12.375 14.75 10 15 C5.25212616 12.52714904 2.5043774 9.71978818 0 5 C-0.25 2.125 -0.25 2.125 0 0 Z " fill="#0F1417" transform="translate(614,639)"/>
<path d="M0 0 C0.66 1.32 1.32 2.64 2 4 C0.625 6 0.625 6 -1 8 C-1.66 8 -2.32 8 -3 8 C-3.33 8.99 -3.66 9.98 -4 11 C-5.45792884 11.05399736 -6.91642712 11.09279177 -8.375 11.125 C-9.18710937 11.14820313 -9.99921875 11.17140625 -10.8359375 11.1953125 C-13 11 -13 11 -15 9 C-14 8 -14 8 -11.4375 7.9375 C-10.2309375 7.9684375 -10.2309375 7.9684375 -9 8 C-9 7.34 -9 6.68 -9 6 C-7.02 5.34 -5.04 4.68 -3 4 C-3.33 3.34 -3.66 2.68 -4 2 C-2.68 1.34 -1.36 0.68 0 0 Z " fill="#171F24" transform="translate(532,700)"/>
<path d="M0 0 C0.66 0.33 1.32 0.66 2 1 C3.4465242 1.15067214 4.8987934 1.24861036 6.3515625 1.31640625 C7.62773438 1.37924805 7.62773438 1.37924805 8.9296875 1.44335938 C9.81914063 1.48267578 10.70859375 1.52199219 11.625 1.5625 C12.97078125 1.62727539 12.97078125 1.62727539 14.34375 1.69335938 C16.56234283 1.79956861 18.7810488 1.90161194 21 2 C21 2.99 21 3.98 21 5 C13.41 5 5.82 5 -2 5 C-1.34 3.35 -0.68 1.7 0 0 Z " fill="#1B2329" transform="translate(664,648)"/>
<path d="M0 0 C4.93317299 0.43527997 7.68649274 2.3782595 11 6 C11.75850036 8.82299004 11.68131863 11.16594353 11 14 C8.8755173 17.44312714 7.85147359 18.71617547 4 20 C4 18 4 18 6 15.875 C6.66 15.25625 7.32 14.6375 8 14 C7.67 13.01 7.34 12.02 7 11 C6.01 11.33 5.02 11.66 4 12 C3.67 10.35 3.34 8.7 3 7 C3.66 7 4.32 7 5 7 C5.33 6.01 5.66 5.02 6 4 C4.02 3.01 2.04 2.02 0 1 C0 0.67 0 0.34 0 0 Z " fill="#090D10" transform="translate(525,690)"/>
<path d="M0 0 C2.07168402 1.67392069 2.94044082 2.47893026 3.2487793 5.17651367 C3.16237183 6.40978394 3.16237183 6.40978394 3.07421875 7.66796875 C2.99204102 9.00698242 2.99204102 9.00698242 2.90820312 10.37304688 C2.83537109 11.30181641 2.76253906 12.23058594 2.6875 13.1875 C2.62626953 14.12787109 2.56503906 15.06824219 2.50195312 16.03710938 C2.34870489 18.35940957 2.1808714 20.67971458 2 23 C1.01 23 0.02 23 -1 23 C-1.02887512 19.35418313 -1.04675585 15.70839537 -1.0625 12.0625 C-1.07087891 11.02158203 -1.07925781 9.98066406 -1.08789062 8.90820312 C-1.09272461 7.42416992 -1.09272461 7.42416992 -1.09765625 5.91015625 C-1.10289307 4.99371338 -1.10812988 4.07727051 -1.11352539 3.13305664 C-1 1 -1 1 0 0 Z " fill="#121A1F" transform="translate(620,685)"/>
<path d="M0 0 C3.28465896 2.79196011 5.01321958 6.23196817 7 10 C7 10.66 7 11.32 7 12 C7.66 12 8.32 12 9 12 C9.66 10.02 10.32 8.04 11 6 C11.99 6 12.98 6 14 6 C12.35 8.64 10.7 11.28 9 14 C8.01 13.67 7.02 13.34 6 13 C6 12.34 6 11.68 6 11 C4.906875 10.79375 3.81375 10.5875 2.6875 10.375 C-1 9 -1 9 -2.9375 5.875 C-3.288125 4.92625 -3.63875 3.9775 -4 3 C-2.68 3.33 -1.36 3.66 0 4 C0 2.68 0 1.36 0 0 Z " fill="#0F1417" transform="translate(449,626)"/>
<path d="M0 0 C6.6 0 13.2 0 20 0 C20 1.32 20 2.64 20 4 C14.72 4 9.44 4 4 4 C4 3.34 4 2.68 4 2 C2.68 1.34 1.36 0.68 0 0 Z " fill="#121B20" transform="translate(583,675)"/>
<path d="M0 0 C6.93 0 13.86 0 21 0 C21.33 1.32 21.66 2.64 22 4 C18.89685213 4.22595954 15.79259193 4.42770896 12.6875 4.625 C11.36588867 4.72167969 11.36588867 4.72167969 10.01757812 4.8203125 C9.17001953 4.871875 8.32246094 4.9234375 7.44921875 4.9765625 C6.27879028 5.05511475 6.27879028 5.05511475 5.0847168 5.13525391 C3 5 3 5 0 3 C0 2.01 0 1.02 0 0 Z " fill="#32393D" transform="translate(663,620)"/>
<path d="M0 0 C1.98 1.65 3.96 3.3 6 5 C4.25 7.0625 4.25 7.0625 2 9 C-0.63988983 8.91484226 -1.98662673 8.00878815 -4.1875 6.5625 C-7.96324682 4.46486288 -11.78202641 3.78110622 -16 3 C-16 2.67 -16 2.34 -16 2 C-11.07872966 1.83317728 -7.49656104 1.75171948 -3 4 C-2.67 3.01 -2.34 2.02 -2 1 C-1.34 1.33 -0.68 1.66 0 2 C0 1.34 0 0.68 0 0 Z " fill="#090B0C" transform="translate(473,554)"/>
<path d="M0 0 C9.57 0 19.14 0 29 0 C29 1.65 29 3.3 29 5 C25.04 5 21.08 5 17 5 C17 4.34 17 3.68 17 3 C17.66 2.67 18.32 2.34 19 2 C12.73 1.67 6.46 1.34 0 1 C0 0.67 0 0.34 0 0 Z " fill="#262C30" transform="translate(828,619)"/>
<path d="M0 0 C1.2065625 0.0309375 1.2065625 0.0309375 2.4375 0.0625 C2.61692163 4.00977588 2.53100689 6.6605513 0.4375 10.0625 C-1.8725 10.0625 -4.1825 10.0625 -6.5625 10.0625 C-6.08699439 8.58215236 -5.60698784 7.10324979 -5.125 5.625 C-4.85816406 4.80128906 -4.59132813 3.97757813 -4.31640625 3.12890625 C-3.20336342 0.07813082 -3.20336342 0.07813082 0 0 Z " fill="#161B20" transform="translate(577.5625,644.9375)"/>
<path d="M0 0 C0 0.99 0 1.98 0 3 C-2 4.6875 -2 4.6875 -4 6 C-4.53625 5.54625 -5.0725 5.0925 -5.625 4.625 C-8.00188773 2.82916439 -8.00188773 2.82916439 -11.1875 2 C-12.115625 1.67 -13.04375 1.34 -14 1 C-14.33 0.01 -14.66 -0.98 -15 -2 C-9.05542387 -3.09644404 -5.32006564 -3.41029848 0 0 Z " fill="#0D1114" transform="translate(463,677)"/>
<path d="M0 0 C2.2477975 2.05233685 3.0022242 3.00667261 4 6 C4 7.32 4 8.64 4 10 C3.34 10 2.68 10 2 10 C1.67 10.66 1.34 11.32 1 12 C0.67 11.67 0.34 11.34 0 11 C-2.69235776 10.76321284 -5.36498156 10.57801975 -8.0625 10.4375 C-8.82111328 10.39431641 -9.57972656 10.35113281 -10.36132812 10.30664062 C-12.24065438 10.20026367 -14.12030244 10.09960066 -16 10 C-16 9.67 -16 9.34 -16 9 C-14.73542969 8.92652344 -14.73542969 8.92652344 -13.4453125 8.8515625 C-12.34960938 8.77679687 -11.25390625 8.70203125 -10.125 8.625 C-8.48917969 8.52058594 -8.48917969 8.52058594 -6.8203125 8.4140625 C-3.86953526 8.26746509 -3.86953526 8.26746509 -2 6 C-2.33 5.34 -2.66 4.68 -3 4 C-2.67 3.34 -2.34 2.68 -2 2 C-1.34 2 -0.68 2 0 2 C0 1.34 0 0.68 0 0 Z " fill="#1A2227" transform="translate(511,635)"/>
<path d="M0 0 C5.28 0 10.56 0 16 0 C16 1.98 16 3.96 16 6 C10.39 5.67 4.78 5.34 -1 5 C-0.67 3.35 -0.34 1.7 0 0 Z " fill="#1C2428" transform="translate(756,633)"/>
<path d="M0 0 C3.96 0.33 7.92 0.66 12 1 C11.34 1.66 10.68 2.32 10 3 C11.32 3.33 12.64 3.66 14 4 C14 4.66 14 5.32 14 6 C9.38 6 4.76 6 0 6 C0 4.02 0 2.04 0 0 Z " fill="#171C1F" transform="translate(594,552)"/>
<path d="M0 0 C0.33 0.66 0.66 1.32 1 2 C2.32 2.66 3.64 3.32 5 4 C2.03 8.95 2.03 8.95 -1 14 C-1.33 13.34 -1.66 12.68 -2 12 C-1.67 11.01 -1.34 10.02 -1 9 C-2.32 8.34 -3.64 7.68 -5 7 C-3.68221547 4.36443095 -1.85780102 2.27730447 0 0 Z " fill="#13181C" transform="translate(638,688)"/>
<path d="M0 0 C0.33 0.66 0.66 1.32 1 2 C0.55527344 2.87398437 0.55527344 2.87398437 0.1015625 3.765625 C-1.24129541 6.48943609 -1.40932624 8.73056733 -1.625 11.75 C-1.69976562 12.73484375 -1.77453125 13.7196875 -1.8515625 14.734375 C-1.90054687 15.48203125 -1.94953125 16.2296875 -2 17 C-2.66 15.68 -3.32 14.36 -4 13 C-4.99 13 -5.98 13 -7 13 C-7.99 13 -8.98 13 -10 13 C-9.37240135 10.07120629 -8.41377341 7.63904371 -7 5 C-5.68 5 -4.36 5 -3 5 C-1.21030974 2.57327433 -1.21030974 2.57327433 0 0 Z " fill="#0B1014" transform="translate(448,562)"/>
<path d="M0 0 C0.66 0.33 1.32 0.66 2 1 C2 4.63 2 8.26 2 12 C-3.02072539 12.79274611 -3.02072539 12.79274611 -6 12 C-8.81110263 9.30449411 -10.91754472 6.27986706 -13 3 C-12.67 2.34 -12.34 1.68 -12 1 C-11.63648438 1.56589844 -11.27296875 2.13179687 -10.8984375 2.71484375 C-7.70987451 7.56199234 -7.70987451 7.56199234 -2.625 10 C-1.75875 10 -0.8925 10 0 10 C0 6.7 0 3.4 0 0 Z " fill="#0A0E11" transform="translate(719,584)"/>
<path d="M0 0 C0.86625 0.2784375 0.86625 0.2784375 1.75 0.5625 C3.99032525 1.16768484 3.99032525 1.16768484 6.125 0.4375 C6.74375 0.293125 7.3625 0.14875 8 0 C8.66 0.66 9.32 1.32 10 2 C12.32275177 2.40047444 14.65739357 2.7397104 17 3 C17 3.99 17 4.98 17 6 C15.39884424 6.2493357 13.79379841 6.47378648 12.1875 6.6875 C11.29417969 6.81511719 10.40085937 6.94273437 9.48046875 7.07421875 C7 7 7 7 5.3125 5.65625 C4.879375 5.1096875 4.44625 4.563125 4 4 C3.278125 3.278125 2.55625 2.55625 1.8125 1.8125 C1.214375 1.214375 0.61625 0.61625 0 0 Z " fill="#1C2428" transform="translate(619,648)"/>
<path d="M0 0 C0 7.26 0 14.52 0 22 C-0.99 22.33 -1.98 22.66 -3 23 C-3 15.74 -3 8.48 -3 1 C-1 0 -1 0 0 0 Z " fill="#0F171D" transform="translate(732,630)"/>
<path d="M0 0 C0.66 0.99 1.32 1.98 2 3 C1.375 6.0625 1.375 6.0625 0 9 C-0.66 9.28875 -1.32 9.5775 -2 9.875 C-4.15970236 10.80635858 -4.15970236 10.80635858 -4.703125 12.890625 C-5.19805628 14.91277278 -5.60440567 16.95609595 -6 19 C-6.33 19 -6.66 19 -7 19 C-6.71769203 11.51883867 -3.81655817 6.34925886 0 0 Z " fill="#0D1115" transform="translate(439,402)"/>
<path d="M0 0 C1.65 0 3.3 0 5 0 C5 0.66 5 1.32 5 2 C3.35 2 1.7 2 0 2 C0.56371414 5.26954202 1.49962266 6.82575883 4 9 C3.34 9 2.68 9 2 9 C2 9.66 2 10.32 2 11 C0.68 10.67 -0.64 10.34 -2 10 C-2.66 11.65 -3.32 13.3 -4 15 C-5.11346788 12.19966161 -5.03510273 11.09856297 -4.00390625 8.203125 C-3.52824219 7.22859375 -3.05257812 6.2540625 -2.5625 5.25 C-2.08941406 4.26515625 -1.61632812 3.2803125 -1.12890625 2.265625 C-0.75636719 1.51796875 -0.38382813 0.7703125 0 0 Z " fill="#0B0F13" transform="translate(586,617)"/>
<path d="M0 0 C0 0.66 0 1.32 0 2 C7.22032206 2.2993987 7.22032206 2.2993987 14 0 C14 0.99 14 1.98 14 3 C13.34 3 12.68 3 12 3 C11.67 3.66 11.34 4.32 11 5 C8.03 4.505 8.03 4.505 5 4 C5 4.33 5 4.66 5 5 C-1.0546875 5.1953125 -1.0546875 5.1953125 -3 5 C-3.66 4.34 -4.32 3.68 -5 3 C-2.25 0 -2.25 0 0 0 Z " fill="#272E32" transform="translate(459,553)"/>
<path d="M0 0 C0.99 0.33 1.98 0.66 3 1 C4.72795352 1.06802967 6.45835365 1.08495645 8.1875 1.0625 C9.08855469 1.05347656 9.98960937 1.04445313 10.91796875 1.03515625 C11.94857422 1.01775391 11.94857422 1.01775391 13 1 C13.33 1.99 13.66 2.98 14 4 C11.77156512 4.19600577 9.54220107 4.38146569 7.3125 4.5625 C5.45044922 4.71912109 5.45044922 4.71912109 3.55078125 4.87890625 C0.44164467 4.98493841 -2.00810972 4.77228525 -5 4 C-3.36587557 2.29159719 -2.13093906 1.06546953 0 0 Z " fill="#10161A" transform="translate(504,551)"/>
<path d="M0 0 C2.64 0 5.28 0 8 0 C8 1.32 8 2.64 8 4 C2.39 4 -3.22 4 -9 4 C-9 3.67 -9 3.34 -9 3 C-6.36 3 -3.72 3 -1 3 C-0.67 2.01 -0.34 1.02 0 0 Z " fill="#192227" transform="translate(657,571)"/>
<path d="M0 0 C1.77174819 0.08723378 3.54247377 0.19541655 5.3125 0.3125 C6.29863281 0.37050781 7.28476562 0.42851563 8.30078125 0.48828125 C11.24384457 1.04622813 12.18182999 1.68540132 14 4 C13.01 5.485 13.01 5.485 12 7 C9.03824877 6.38722388 7.61941217 5.74627478 5 4 C4.113125 3.484375 3.22625 2.96875 2.3125 2.4375 C1.549375 1.963125 0.78625 1.48875 0 1 C0 0.67 0 0.34 0 0 Z " fill="#192025" transform="translate(518,691)"/>
<path d="M0 0 C2.31590289 3.47385433 2.26991835 4.96430006 2.25 9.0625 C2.25515625 10.12597656 2.2603125 11.18945312 2.265625 12.28515625 C2 15 2 15 0 17 C-0.97403725 13.73774826 -1.13415799 10.77261339 -1.125 7.375 C-1.12757813 6.41335938 -1.13015625 5.45171875 -1.1328125 4.4609375 C-1 2 -1 2 0 0 Z " fill="#25292C" transform="translate(752,402)"/>
<path d="M0 0 C3.96 0 7.92 0 12 0 C12.33 4.62 12.66 9.24 13 14 C11.02 14.99 11.02 14.99 9 16 C9.66 11.05 10.32 6.1 11 1 C9.35 1.33 7.7 1.66 6 2 C6 2.33 6 2.66 6 3 C4.02 3 2.04 3 0 3 C0 2.01 0 1.02 0 0 Z " fill="#22292E" transform="translate(634,637)"/>
<path d="M0 0 C-3 2 -3 2 -7 2 C-7 2.66 -7 3.32 -7 4 C-10.125 5.25 -10.125 5.25 -14 6 C-17.4375 4.125 -17.4375 4.125 -20 2 C-17 2 -14 2 -11 2 C-11 1.67 -11 1.34 -11 1 C-9.5437328 0.63743142 -8.08488815 0.28520207 -6.625 -0.0625 C-5.81289063 -0.25972656 -5.00078125 -0.45695313 -4.1640625 -0.66015625 C-2 -1 -2 -1 0 0 Z " fill="#090D10" transform="translate(530,704)"/>
<path d="M0 0 C0.99 0.33 1.98 0.66 3 1 C2.29445932 4.66881155 0.72264494 7.70450534 -1 11 C-2.4606285 8.35261084 -3 7.10551666 -3 4 C-1.5 1.8125 -1.5 1.8125 0 0 Z " fill="#181D21" transform="translate(720,635)"/>
<path d="M0 0 C2.39105598 2.14926381 3.63278854 3.99036913 4.75 7 C5.01296875 7.680625 5.2759375 8.36125 5.546875 9.0625 C6 11 6 11 5 14 C3.68 13.34 2.36 12.68 1 12 C0.67 12.66 0.34 13.32 0 14 C-0.09765625 7.84765625 -0.09765625 7.84765625 0 6 C0.33 5.67 0.66 5.34 1 5 C0.71395102 3.32457024 0.38218767 1.65614657 0 0 Z " fill="#0F1316" transform="translate(508,625)"/>
<path d="M0 0 C0.66 0.33 1.32 0.66 2 1 C2 1.33 2 1.66 2 2 C2.66 2.33 3.32 2.66 4 3 C3.67 3.99 3.34 4.98 3 6 C0.9375 6.6875 0.9375 6.6875 -1 7 C-1 8.98 -1 10.96 -1 13 C-1.66 12.67 -2.32 12.34 -3 12 C-3.08131463 10.56344146 -3.13933559 9.1255517 -3.1875 7.6875 C-3.22230469 6.88699219 -3.25710938 6.08648438 -3.29296875 5.26171875 C-2.93801608 2.52148416 -2.10633718 1.70828921 0 0 Z " fill="#1C2329" transform="translate(444,676)"/>
<path d="M0 0 C0.99 0 1.98 0 3 0 C3 1.98 3 3.96 3 6 C-1.29 6 -5.58 6 -10 6 C-9.67 5.34 -9.34 4.68 -9 4 C-5.7 4 -2.4 4 1 4 C0.67 2.68 0.34 1.36 0 0 Z " fill="#04080B" transform="translate(569,674)"/>
<path d="M0 0 C0.99 0.33 1.98 0.66 3 1 C2.67 2.32 2.34 3.64 2 5 C1.34 5 0.68 5 0 5 C-0.33 6.32 -0.66 7.64 -1 9 C-2.32 9 -3.64 9 -5 9 C-4.67 6.69 -4.34 4.38 -4 2 C-3.01 2 -2.02 2 -1 2 C-0.67 1.34 -0.34 0.68 0 0 Z " fill="#12171B" transform="translate(582,633)"/>
<path d="M0 0 C3.25195722 4.87793583 3.11325659 9.22391379 3 15 C2.01 15 1.02 15 0 15 C0 10.05 0 5.1 0 0 Z " fill="#141D22" transform="translate(841,637)"/>
<path d="M0 0 C0.99 0 1.98 0 3 0 C3.48867825 7.20800421 3.48867825 7.20800421 1.1875 10.9375 C-1 13 -1 13 -4 14 C-4 13.34 -4 12.68 -4 12 C-3.34 11.46375 -2.68 10.9275 -2 10.375 C0.9345109 6.8902683 0.29763151 4.46447272 0 0 Z " fill="#12171B" transform="translate(533,696)"/>
<path d="M0 0 C0.99 0.99 1.98 1.98 3 3 C2 6 2 6 0 7 C0.33 8.32 0.66 9.64 1 11 C-2.0916909 8.47043472 -2.90931332 5.77545388 -4 2 C-2.68 1.34 -1.36 0.68 0 0 Z " fill="#0D1115" transform="translate(708,626)"/>
<path d="M0 0 C4.29 0 8.58 0 13 0 C13 0.99 13 1.98 13 3 C8.71 3 4.42 3 0 3 C0 2.01 0 1.02 0 0 Z " fill="#1F262A" transform="translate(505,593)"/>
<path d="M0 0 C1.37478516 0.01740234 1.37478516 0.01740234 2.77734375 0.03515625 C3.69644531 0.04417969 4.61554687 0.05320312 5.5625 0.0625 C6.27277344 0.07410156 6.98304688 0.08570313 7.71484375 0.09765625 C7.71484375 1.08765625 7.71484375 2.07765625 7.71484375 3.09765625 C6.25691491 3.15165361 4.79841663 3.19044802 3.33984375 3.22265625 C2.52773438 3.24585938 1.715625 3.2690625 0.87890625 3.29296875 C-1.28515625 3.09765625 -1.28515625 3.09765625 -3.28515625 1.09765625 C-2.28515625 0.09765625 -2.28515625 0.09765625 0 0 Z " fill="#202428" transform="translate(520.28515625,707.90234375)"/>
<path d="M0 0 C2.64 0 5.28 0 8 0 C8.86646667 1.43011973 9.71781829 2.86940619 10.5625 4.3125 C11.03816406 5.11300781 11.51382812 5.91351562 12.00390625 6.73828125 C13 9 13 9 12 12 C11.72027344 11.37351562 11.44054687 10.74703125 11.15234375 10.1015625 C8.96605319 5.30270543 8.96605319 5.30270543 5.109375 1.95703125 C2.99857735 1.34268555 2.99857735 1.34268555 0 1 C0 0.67 0 0.34 0 0 Z " fill="#0A0C0E" transform="translate(470,674)"/>
<path d="M0 0 C3 3.625 3 3.625 3 7 C4.32 7 5.64 7 7 7 C7.33 6.01 7.66 5.02 8 4 C8.66 5.65 9.32 7.3 10 9 C7.36 9 4.72 9 2 9 C1.34 6.03 0.68 3.06 0 0 Z " fill="#0F1113" transform="translate(511,646)"/>
<path d="M0 0 C1.45792884 -0.05399736 2.91642712 -0.09279177 4.375 -0.125 C5.18710937 -0.14820313 5.99921875 -0.17140625 6.8359375 -0.1953125 C9 0 9 0 11 2 C10 3 10 3 7.71484375 3.09765625 C6.34005859 3.08025391 6.34005859 3.08025391 4.9375 3.0625 C4.01839844 3.05347656 3.09929687 3.04445313 2.15234375 3.03515625 C1.44207031 3.02355469 0.73179687 3.01195312 0 3 C0 2.01 0 1.02 0 0 Z " fill="#1F2427" transform="translate(456,550)"/>
<path d="M0 0 C2.96052484 3.36423277 3.92289822 6.69159287 5 11 C2.69 11 0.38 11 -2 11 C-2.33 9.68 -2.66 8.36 -3 7 C-2.67 7.66 -2.34 8.32 -2 9 C-0.68 8.67 0.64 8.34 2 8 C1.67 7.236875 1.34 6.47375 1 5.6875 C0 3 0 3 0 0 Z " fill="#06080B" transform="translate(602,644)"/>
<path d="M0 0 C0.99 0.66 1.98 1.32 3 2 C4.92744369 2.3626117 4.92744369 2.3626117 7.01171875 2.4140625 C8.14770508 2.47207031 8.14770508 2.47207031 9.30664062 2.53125 C10.09232422 2.5621875 10.87800781 2.593125 11.6875 2.625 C12.88342773 2.68300781 12.88342773 2.68300781 14.10351562 2.7421875 C16.06863475 2.83632494 18.0342854 2.91924632 20 3 C20 3.33 20 3.66 20 4 C12.74 4 5.48 4 -2 4 C-1.34 2.68 -0.68 1.36 0 0 Z " fill="#141C21" transform="translate(664,648)"/>
<path d="M0 0 C4.75 0.75 4.75 0.75 7 3 C4.11584117 4.44207941 1.58278472 4.09394887 -1.625 4.0625 C-2.81351562 4.05347656 -4.00203125 4.04445313 -5.2265625 4.03515625 C-6.14179688 4.02355469 -7.05703125 4.01195312 -8 4 C-8 3.67 -8 3.34 -8 3 C-5.69 3 -3.38 3 -1 3 C-0.67 2.01 -0.34 1.02 0 0 Z " fill="#1D252C" transform="translate(463,590)"/>
<path d="M0 0 C2.7839183 1.39195915 2.97898997 3.15575779 4 6 C2.02 6.99 2.02 6.99 0 8 C-1.5625 6.75 -1.5625 6.75 -3 5 C-2.6875 2.8125 -2.6875 2.8125 -2 1 C-1.34 1.33 -0.68 1.66 0 2 C0 1.34 0 0.68 0 0 Z " fill="#151C21" transform="translate(473,554)"/>
<path d="M0 0 C2.31 0 4.62 0 7 0 C8.0625 1.8125 8.0625 1.8125 9 4 C8.67 4.99 8.34 5.98 8 7 C7.773125 6.360625 7.54625 5.72125 7.3125 5.0625 C6.14749104 2.72806339 6.14749104 2.72806339 3.375 2.25 C2.59125 2.1675 1.8075 2.085 1 2 C0.67 3.65 0.34 5.3 0 7 C-0.93423645 3.98968256 -1.04449911 3.13349732 0 0 Z " fill="#0D1012" transform="translate(499,617)"/>
<path d="M0 0 C2.475 0.99 2.475 0.99 5 2 C3.75 3.5625 3.75 3.5625 2 5 C0.125 4.6875 0.125 4.6875 -2 4 C-3.66623639 3.96213099 -5.33397597 3.95372155 -7 4 C-7 3.01 -7 2.02 -7 1 C-4.69 1 -2.38 1 0 1 C0 0.67 0 0.34 0 0 Z " fill="#1D252A" transform="translate(528,676)"/>
<path d="M0 0 C3 3 3 3 4 6 C3.34 6.66 2.68 7.32 2 8 C1.53993654 10.20250992 1.53993654 10.20250992 1.375 12.625 C1.30023437 13.44226563 1.22546875 14.25953125 1.1484375 15.1015625 C1.07496094 16.04128906 1.07496094 16.04128906 1 17 C0.67 17 0.34 17 0 17 C0 11.39 0 5.78 0 0 Z " fill="#F2F3F3" transform="translate(704,631)"/>
<path d="M0 0 C0.33 0.66 0.66 1.32 1 2 C0.06553465 4.03144641 -0.93224776 6.03533587 -2 8 C-2.598125 7.773125 -3.19625 7.54625 -3.8125 7.3125 C-4.8953125 7.1578125 -4.8953125 7.1578125 -6 7 C-7.77190909 8.35444301 -7.77190909 8.35444301 -9 10 C-8.67 8.35 -8.34 6.7 -8 5 C-7.05125 4.731875 -6.1025 4.46375 -5.125 4.1875 C-1.74732727 3.25013412 -1.74732727 3.25013412 0 0 Z " fill="#0B0F12" transform="translate(726,629)"/>
<path d="M0 0 C2.475 0.495 2.475 0.495 5 1 C5 3.62113708 4.68707555 5.50935112 4 8 C3.01 7.67 2.02 7.34 1 7 C0.67 4.69 0.34 2.38 0 0 Z " fill="#1C2328" transform="translate(707,630)"/>
<path d="M0 0 C6.0546875 -0.1953125 6.0546875 -0.1953125 8 0 C8.66 0.66 9.32 1.32 10 2 C9.625 4.125 9.625 4.125 9 6 C8.34 5.67 7.68 5.34 7 5 C5.989375 4.71125 4.97875 4.4225 3.9375 4.125 C2.968125 3.75375 1.99875 3.3825 1 3 C0.67 2.01 0.34 1.02 0 0 Z " fill="#1D252A" transform="translate(448,675)"/>
<path d="M0 0 C0.928125 0.2784375 0.928125 0.2784375 1.875 0.5625 C4.04160178 1.23686176 4.04160178 1.23686176 6 0 C5.67 1.98 5.34 3.96 5 6 C2.03 5.505 2.03 5.505 -1 5 C-0.67 3.35 -0.34 1.7 0 0 Z " fill="#0E1216" transform="translate(496,626)"/>
<path d="M0 0 C0.33 0.99 0.66 1.98 1 3 C0.01 3.495 0.01 3.495 -1 4 C-0.34 4.66 0.32 5.32 1 6 C0.67 6.99 0.34 7.98 0 9 C-1.65 7.68 -3.3 6.36 -5 5 C-4.67 3.68 -4.34 2.36 -4 1 C-2.68 0.67 -1.36 0.34 0 0 Z " fill="#1D2226" transform="translate(640,618)"/>
<path d="M0 0 C1.41750563 0.11509661 2.83401169 0.24253658 4.25 0.375 C5.03890625 0.44460938 5.8278125 0.51421875 6.640625 0.5859375 C9.085877 1.01507113 10.84836903 1.78600638 13 3 C13 3.33 13 3.66 13 4 C10.69 4 8.38 4 6 4 C6 3.34 6 2.68 6 2 C3.03 1.505 3.03 1.505 0 1 C0 0.67 0 0.34 0 0 Z " fill="#101316" transform="translate(820,370)"/>
<path d="M0 0 C0.66 0.33 1.32 0.66 2 1 C2.8125 4.375 2.8125 4.375 3 8 C1.5625 9.9375 1.5625 9.9375 0 11 C0.33 9.35 0.66 7.7 1 6 C-0.32 5.34 -1.64 4.68 -3 4 C-2 2 -2 2 0 0 Z " fill="#0B0F12" transform="translate(636,691)"/>
<path d="M0 0 C1.42944945 2.35438733 2.08661261 3.48032433 1.625 6.25 C1.41875 6.8275 1.2125 7.405 1 8 C1 7.34 1 6.68 1 6 C-0.98 6.33 -2.96 6.66 -5 7 C-4.67 5.68 -4.34 4.36 -4 3 C-3.01 3 -2.02 3 -1 3 C-0.67 2.01 -0.34 1.02 0 0 Z " fill="#1A2126" transform="translate(443,571)"/>
<path d="M0 0 C0 0.99 0 1.98 0 3 C-3.96 3 -7.92 3 -12 3 C-7.28954732 0.64477366 -5.22786799 -0.1136493 0 0 Z " fill="#13656F" transform="translate(347,339)"/>
<path d="M0 0 C5.66153846 2.46153846 5.66153846 2.46153846 7.375 5.1875 C7.58125 5.785625 7.7875 6.38375 8 7 C5 7 5 7 2.3125 4.625 C0 2 0 2 0 0 Z " fill="#21262B" transform="translate(516,555)"/>
<path d="M0 0 C0.99 0.33 1.98 0.66 3 1 C2.01 3.31 1.02 5.62 0 8 C-0.99 8 -1.98 8 -3 8 C-1.125 2.25 -1.125 2.25 0 0 Z " fill="#202428" transform="translate(674,458)"/>
<path d="M0 0 C2.24606427 1.77444972 2.95081002 2.58352485 3.29296875 5.48046875 C3.25816406 6.37378906 3.22335937 7.26710938 3.1875 8.1875 C3.16042969 9.08855469 3.13335937 9.98960937 3.10546875 10.91796875 C3.07066406 11.60503906 3.03585937 12.29210937 3 13 C-0.09902323 9.90097677 0.0101421 7.60852615 -0.0625 3.25 C-0.041875 2.1775 -0.02125 1.105 0 0 Z " fill="#0C0F11" transform="translate(430,456)"/>
<path d="M0 0 C1 3 1 3 0.0625 5.1875 C-0.4634375 6.0846875 -0.4634375 6.0846875 -1 7 C-1.99 7 -2.98 7 -4 7 C-2.92598892 4.08482708 -2.22189824 2.22189824 0 0 Z " fill="#05505B" transform="translate(166,397)"/>
<path d="M0 0 C2.56687367 3.8503105 1.83288724 5.58569763 1 10 C0.01 9.67 -0.98 9.34 -2 9 C-1.34 6.03 -0.68 3.06 0 0 Z " fill="#21272B" transform="translate(483,684)"/>
<path d="M0 0 C1.06546953 3.1964086 1.07427838 5.65747276 1 9 C-0.32 8.67 -1.64 8.34 -3 8 C-2.34 7.67 -1.68 7.34 -1 7 C-1.20625 6.401875 -1.4125 5.80375 -1.625 5.1875 C-2 3 -2 3 0 0 Z " fill="#1A2126" transform="translate(643,682)"/>
<path d="M0 0 C0.33 0.99 0.66 1.98 1 3 C0.67 3.66 0.34 4.32 0 5 C-2.31 5 -4.62 5 -7 5 C-6.67 4.01 -6.34 3.02 -6 2 C-4.35 2 -2.7 2 -1 2 C-0.67 1.34 -0.34 0.68 0 0 Z " fill="#080A0C" transform="translate(578,650)"/>
<path d="M0 0 C0.33 0.66 0.66 1.32 1 2 C1.66 2 2.32 2 3 2 C2.30058404 5.14737182 1.23921302 8.02588876 0 11 C-1.37432457 7.18243176 -0.67975039 3.92744671 0 0 Z " fill="#1D2428" transform="translate(855,476)"/>
<path d="M0 0 C0.66 0.99 1.32 1.98 2 3 C0.625 6.6875 0.625 6.6875 -1 10 C-1.99 9.34 -2.98 8.68 -4 8 C-2.68 5.36 -1.36 2.72 0 0 Z " fill="#24272A" transform="translate(665,429)"/>
<path d="M0 0 C0.33 0.66 0.66 1.32 1 2 C2.32 1.67 3.64 1.34 5 1 C3 4 3 4 0 6 C-0.66 5.67 -1.32 5.34 -2 5 C-1.34 3.35 -0.68 1.7 0 0 Z " fill="#1A2227" transform="translate(491,685)"/>
<path d="M0 0 C3.375 -0.1875 3.375 -0.1875 7 0 C7.66 0.99 8.32 1.98 9 3 C6.36 3 3.72 3 1 3 C0.67 2.01 0.34 1.02 0 0 Z " fill="#292F33" transform="translate(518,673)"/>
<path d="M0 0 C0.33 0.66 0.66 1.32 1 2 C1.99 2.33 2.98 2.66 4 3 C3.01 4.32 2.02 5.64 1 7 C-0.0625 4.625 -0.0625 4.625 -1 2 C-0.67 1.34 -0.34 0.68 0 0 Z " fill="#1D2528" transform="translate(630,690)"/>
<path d="M0 0 C1.98 0.495 1.98 0.495 4 1 C4 1.99 4 2.98 4 4 C2.68 4.33 1.36 4.66 0 5 C-0.33 4.34 -0.66 3.68 -1 3 C-0.67 2.01 -0.34 1.02 0 0 Z " fill="#1D2226" transform="translate(459,676)"/>
<path d="M0 0 C3.34373475 0.55728913 6.03312999 1.35173889 9 3 C5.67465243 4.10844919 3.37817425 3.84454356 0 3 C0 2.01 0 1.02 0 0 Z " fill="#1D2328" transform="translate(818,393)"/>
</svg>
